# Blender 4.2.1 LTS
# www.blender.org
mtllib Fish.blend.mtl
o Plane
v 1.846625 1.323296 0.000000
v 1.598941 1.715365 0.000000
v 1.821436 1.776498 0.000000
v 1.605504 1.535738 0.000000
v 2.000855 1.548864 0.000000
v 1.077119 1.215559 0.000000
v 1.070685 1.770599 0.000000
v 1.080465 1.502923 0.000000
v 0.453725 0.987554 0.000000
v 0.420861 1.919847 0.000000
v 0.437293 1.437293 0.000000
v -0.376002 0.848998 0.000000
v -0.357343 2.067477 0.000000
v -0.324013 1.454471 0.000000
v -1.273095 0.903434 0.000000
v -1.217123 1.941554 0.000000
v -1.193929 1.505001 0.000000
v -1.736458 0.946038 0.000000
v -1.634660 1.833868 0.000000
v -1.860857 1.323269 0.000000
v -2.145996 1.109198 0.000000
v -1.947879 1.684174 0.000000
v -2.062058 1.293065 0.000000
v -2.451961 1.286765 0.000000
v -2.160224 1.567808 0.000000
v -2.450645 1.344257 0.000000
v 0.879379 1.833692 0.000000
v 0.871697 1.480950 0.000000
v 0.874973 1.126098 0.000000
v 1.982807 1.687900 0.000000
v 1.641600 1.658366 0.000000
v 1.114953 1.669576 0.000000
v 0.468455 1.711385 0.000000
v -0.301300 1.793789 0.000000
v -1.168183 1.754397 0.000000
v -1.891061 1.524470 0.000000
v -2.092262 1.494266 0.000000
v -2.294122 1.474246 0.000000
v 0.914916 1.690136 0.000000
v 1.654726 1.426235 0.000000
v 1.969681 1.416391 0.000000
v 1.124733 1.339552 0.000000
v 0.491450 1.192735 0.000000
v -0.304067 1.132046 0.000000
v -1.192947 1.190048 0.000000
v -1.655457 1.176424 0.000000
v -2.122303 1.186690 0.000000
v -2.459811 1.312805 0.000000
v 0.919276 1.283835 0.000000
v -1.651211 1.634863 0.000000
v -1.657898 1.288993 0.000000
v -2.156936 1.514022 0.000000
v -2.135105 1.258722 0.000000
v -1.791270 1.759021 0.000000
v -1.896501 1.273857 0.000000
v -1.941227 1.027618 0.000000
v -1.904074 1.574442 0.000000
v -1.888880 1.181557 0.000000
v -1.955202 1.266497 0.000000
v -1.997917 1.551038 0.000000
v 1.623552 1.597052 0.000000
v 1.097709 1.586249 0.000000
v 0.452874 1.574339 0.000000
v -0.312656 1.624130 0.000000
v -1.181056 1.629699 0.000000
v -1.654555 1.461928 0.000000
v -2.146020 1.386372 0.000000
v -2.368799 1.421553 0.000000
v 0.893306 1.585543 0.000000
v 1.991831 1.618382 0.000000
v -1.834289 1.430125 0.000000
v -2.118830 1.387410 0.000000
v -1.971614 1.411405 0.000000
v 2.464183 0.790053 0.000000
v 2.463302 2.479132 0.000000
v 2.189996 1.557979 0.000000
v 2.282850 1.957559 0.000000
v 2.281878 1.256874 0.000000
v 2.189328 1.660160 0.000000
v 0.441729 2.390776 0.000000
v 0.512404 2.584008 0.000000
v 0.175996 2.443205 0.000000
v 1.206781 1.941510 0.000000
v 1.246521 2.102719 0.000000
v -0.094125 2.252909 0.000000
v 0.586246 2.101623 0.000000
v 1.336908 1.797550 0.000000
v 1.059655 1.965791 0.000000
v 0.277621 0.421547 0.000000
v 0.120669 1.992620 0.000000
v 0.143620 1.443920 0.000000
v 0.139988 0.908786 0.000000
v 0.171522 1.743172 0.000000
v 0.184580 1.169324 0.000000
v 0.157571 1.593546 0.000000
v 0.339223 2.411000 0.000000
v 0.323793 2.159981 0.000000
v -0.144141 0.590962 0.000000
v 0.129679 0.554391 0.000000
v 1.259315 0.794191 0.000000
v 1.362866 1.221678 0.000000
v 1.181325 1.030090 0.000000
v 0.975358 0.941154 0.000000
v 1.846625 1.323296 -0.149662
v 1.598941 1.715365 -0.133929
v 1.821436 1.776498 -0.149662
v 1.605504 1.535738 -0.133929
v 2.000855 1.548864 -0.149662
v 1.080465 1.502923 -0.128367
v 0.420861 1.919847 -0.059758
v 0.437293 1.437293 -0.180338
v -0.324013 1.454471 -0.289935
v -1.193929 1.505001 -0.248721
v -1.865406 1.327850 -0.129042
v -2.062058 1.293065 -0.129578
v 0.871697 1.480950 -0.128622
v 1.982807 1.687900 -0.149662
v 1.641600 1.658366 -0.133929
v 1.114953 1.669576 -0.128367
v 0.468455 1.711385 -0.180338
v -0.301300 1.793789 -0.289938
v -1.168183 1.754397 -0.248721
v -1.901643 1.510749 -0.128194
v -2.092262 1.494266 -0.129578
v 0.914916 1.690136 -0.128622
v 1.654726 1.426235 -0.133929
v 1.969681 1.416391 -0.149662
v 1.124733 1.339552 -0.128367
v 0.491450 1.192735 -0.180338
v -0.304067 1.132046 -0.289932
v -1.192947 1.190048 -0.248721
v -1.655457 1.176424 -0.128367
v -2.122303 1.186690 -0.128367
v 0.919276 1.283835 -0.128622
v -1.651211 1.634863 -0.146769
v -1.657898 1.288993 -0.128367
v -2.156936 1.514022 -0.129578
v -2.135105 1.258722 -0.128367
v -1.896501 1.273857 -0.129578
v -1.904074 1.574442 -0.129578
v -1.888880 1.181557 -0.129578
v -1.955211 1.280141 -0.129653
v -1.988899 1.537423 -0.130615
v 1.623552 1.597052 -0.133929
v 1.097709 1.586249 -0.128367
v 0.452874 1.574339 -0.180338
v -0.312656 1.624130 -0.289936
v -1.181056 1.629699 -0.248721
v -1.654555 1.461928 -0.128367
v -2.146020 1.386372 -0.129578
v 0.893306 1.585543 -0.128622
v 1.991831 1.618382 -0.149662
v -1.849475 1.427064 -0.127685
v -2.109907 1.387410 -0.130680
v 2.464183 0.790053 -0.053385
v 2.463302 2.479132 -0.053385
v 2.189996 1.557979 -0.053385
v 2.282850 1.957559 -0.053385
v 2.281878 1.256874 -0.053385
v 2.189328 1.660160 -0.053385
v 0.441729 2.390776 -0.061203
v 0.512404 2.584008 -0.061203
v 0.175996 2.443205 -0.061203
v 1.206781 1.941510 -0.034049
v 1.246521 2.102719 -0.034049
v -0.094125 2.252909 -0.061203
v 0.586246 2.101623 -0.061203
v 1.336908 1.797550 -0.034049
v 1.059655 1.965791 -0.034049
v 0.277621 0.421547 -0.039192
v 0.143620 1.443920 -0.209712
v 0.171522 1.743172 -0.209715
v 0.184580 1.169324 -0.209709
v 0.157571 1.593546 -0.209714
v 0.339223 2.411000 -0.053951
v 0.323793 2.159981 -0.053951
v -0.144141 0.590962 -0.039192
v 0.129679 0.554391 -0.039192
v 1.259315 0.794191 -0.031411
v 1.362866 1.221678 -0.031411
v 1.181325 1.030090 -0.031411
v 0.975358 0.941154 -0.031411
v -2.102070 1.511637 -0.105472
v -2.039613 1.450195 -0.177425
v -2.006804 1.417920 -0.189290
v -1.947906 1.359979 -0.186787
v -1.860535 1.274029 -0.105472
v -2.101756 1.526835 -0.077844
v -2.086863 1.527095 -0.102847
v -2.067914 1.522195 -0.125889
v -2.045635 1.512324 -0.146086
v -2.020885 1.497861 -0.162662
v -2.004272 1.468603 -0.178319
v -1.964915 1.462750 -0.180659
v -1.936577 1.434872 -0.183552
v -1.930080 1.395617 -0.185893
v -1.894566 1.380942 -0.174978
v -1.875639 1.354977 -0.162662
v -1.860772 1.330467 -0.146086
v -1.850537 1.308354 -0.125889
v -1.845328 1.289487 -0.102847
v -1.845344 1.274592 -0.077844
v -2.094763 1.533944 -0.073961
v -2.073145 1.541040 -0.095229
v -2.047998 1.542440 -0.114831
v -2.020288 1.538091 -0.132011
v -1.991079 1.528160 -0.146111
v -1.961495 1.513029 -0.156588
v -1.932672 1.493278 -0.163040
v -1.905718 1.469667 -0.165218
v -1.881668 1.443103 -0.163040
v -1.861447 1.414608 -0.156588
v -1.845833 1.385276 -0.146111
v -1.835424 1.356234 -0.132011
v -1.830622 1.328599 -0.114831
v -1.831609 1.303432 -0.095229
v -1.838350 1.281701 -0.073961
v -2.112020 1.521425 0.000000
v -2.089213 1.539585 -0.067912
v -2.062258 1.552106 -0.083365
v -2.032193 1.558507 -0.097606
v -2.000171 1.558540 -0.110088
v -1.967425 1.552205 -0.120332
v -1.935212 1.539746 -0.127944
v -1.904770 1.521641 -0.132632
v -1.877269 1.498586 -0.134215
v -1.853766 1.471467 -0.132632
v -1.835164 1.441326 -0.127944
v -1.822179 1.409321 -0.120332
v -1.815308 1.376683 -0.110088
v -1.814816 1.344665 -0.097606
v -1.820723 1.314499 -0.083365
v -1.832800 1.287342 -0.067912
v -2.085649 1.543208 -0.060291
v -2.055268 1.559212 -0.068415
v -2.022045 1.568822 -0.075902
v -1.987256 1.571669 -0.082464
v -1.952238 1.567643 -0.087850
v -1.918337 1.556900 -0.091852
v -1.886855 1.539851 -0.094316
v -1.859004 1.517153 -0.095148
v -1.835852 1.489677 -0.094316
v -1.818290 1.458479 -0.091852
v -1.806992 1.424759 -0.087850
v -1.802392 1.389812 -0.082464
v -1.804669 1.354980 -0.075902
v -1.813733 1.321604 -0.068415
v -1.829237 1.290965 -0.060291
v -2.084421 1.544456 0.000000
v -2.052860 1.561660 0.000000
v -2.018548 1.572376 0.000000
v -1.982805 1.576193 0.000000
v -1.947005 1.572963 0.000000
v -1.912522 1.562811 0.000000
v -1.880682 1.546126 0.000000
v -1.852710 1.523551 0.000000
v -1.829679 1.495952 0.000000
v -1.812475 1.464390 0.000000
v -1.801759 1.430079 0.000000
v -1.797942 1.394336 0.000000
v -1.801172 1.358535 0.000000
v -1.811324 1.324052 0.000000
v -1.828009 1.292213 0.000000
v -2.085649 1.543208 0.000000
v -2.055268 1.559212 0.000000
v -2.022045 1.568822 0.000000
v -1.987256 1.571669 0.000000
v -1.952238 1.567643 0.000000
v -1.918337 1.556900 0.000000
v -1.886855 1.539851 0.000000
v -1.859004 1.517153 0.000000
v -1.835852 1.489677 0.000000
v -1.818290 1.458479 0.000000
v -1.806992 1.424759 0.000000
v -1.802392 1.389812 0.000000
v -1.804669 1.354980 0.000000
v -1.813733 1.321604 0.000000
v -1.829237 1.290965 0.000000
v -2.089213 1.539585 0.000000
v -2.062258 1.552106 0.000000
v -2.032193 1.558507 0.000000
v -2.000171 1.558540 0.006403
v -1.967425 1.552205 0.016647
v -1.935212 1.539746 0.024260
v -1.904770 1.521641 0.028947
v -1.877269 1.498586 0.030530
v -1.853766 1.471467 0.028947
v -1.835164 1.441326 0.024260
v -1.822179 1.409321 0.016647
v -1.815308 1.376683 0.006403
v -1.814816 1.344665 0.000000
v -1.820723 1.314499 0.000000
v -1.832800 1.287342 0.000000
v -2.094763 1.533944 0.000000
v -2.073145 1.541040 0.000000
v -2.047998 1.542440 0.011146
v -2.020287 1.538091 0.028326
v -1.991079 1.528160 0.042426
v -1.961495 1.513029 0.052903
v -1.932672 1.493278 0.059355
v -1.905718 1.469667 0.061533
v -1.881668 1.443103 0.059355
v -1.861447 1.414608 0.052903
v -1.845833 1.385276 0.042426
v -1.835424 1.356234 0.028326
v -1.830622 1.328599 0.011146
v -1.831610 1.303432 0.000000
v -1.838350 1.281701 0.000000
v -2.101756 1.526835 0.000000
v -2.086863 1.527095 0.000000
v -2.067914 1.522195 0.022204
v -2.045636 1.512324 0.042401
v -2.020885 1.497861 0.058977
v -1.994614 1.479362 0.071293
v -1.967830 1.457538 0.078878
v -1.941565 1.433227 0.081439
v -1.916827 1.407364 0.078878
v -1.894566 1.380942 0.071293
v -1.875639 1.354977 0.058977
v -1.860772 1.330467 0.042401
v -1.850537 1.308354 0.022204
v -1.845328 1.289487 0.000000
v -1.845344 1.274592 0.000000
v -2.109509 1.518954 0.000000
v -2.102070 1.511637 0.000000
v -2.089990 1.499754 0.026015
v -2.073734 1.483761 0.047251
v -2.053926 1.464275 0.064680
v -2.031326 1.442043 0.077630
v -2.006804 1.417920 0.085605
v -1.981302 1.392833 0.088297
v -1.955801 1.367746 0.085605
v -1.931279 1.343622 0.077630
v -1.908679 1.321391 0.064680
v -1.888871 1.301904 0.047251
v -1.872614 1.285912 0.026015
v -1.860535 1.274029 0.000000
v -1.853096 1.266711 0.000000
v -2.117261 1.511074 0.000000
v -2.117277 1.496178 0.000000
v -2.112067 1.477312 0.022204
v -2.101832 1.455198 0.042401
v -2.086966 1.430689 0.058977
v -2.068038 1.404724 0.071293
v -2.045778 1.378302 0.078878
v -2.021040 1.352438 0.081439
v -1.994774 1.328127 0.078878
v -1.967991 1.306303 0.071293
v -1.941720 1.287804 0.058977
v -1.916969 1.273341 0.042401
v -1.894691 1.263470 0.022205
v -1.875741 1.258570 0.000000
v -1.860849 1.258831 0.000000
v -1.850584 1.264240 0.000000
v -2.124254 1.503965 0.000000
v -2.130995 1.482233 0.000000
v -2.131983 1.457067 0.011146
v -2.127180 1.429431 0.028326
v -2.116772 1.400390 0.042426
v -2.101157 1.371057 0.052903
v -2.080937 1.342562 0.059355
v -2.056887 1.315999 0.061533
v -2.029933 1.292388 0.059355
v -2.001110 1.272637 0.052903
v -1.971526 1.257505 0.042426
v -1.942317 1.247574 0.028326
v -1.914607 1.243225 0.011146
v -1.889460 1.244625 0.000000
v -1.867842 1.251722 0.000000
v -2.129805 1.498323 0.000000
v -2.141882 1.471166 0.000000
v -2.147788 1.441000 0.000000
v -2.147297 1.408983 0.006403
v -2.140426 1.376344 0.016647
v -2.127440 1.344340 0.024259
v -2.108839 1.314198 0.028947
v -2.085336 1.287079 0.030530
v -2.057835 1.264024 0.028947
v -2.027393 1.245919 0.024259
v -1.995180 1.233460 0.016647
v -1.962434 1.227125 0.006403
v -1.930412 1.227159 0.000000
v -1.900347 1.233558 0.000000
v -1.873392 1.246080 0.000000
v -2.133368 1.494701 0.000000
v -2.148872 1.464061 0.000000
v -2.157936 1.430685 0.000000
v -2.160213 1.395853 0.000000
v -2.155613 1.360906 0.000000
v -2.144315 1.327186 0.000000
v -2.126753 1.295988 0.000000
v -2.103601 1.268512 0.000000
v -2.075749 1.245814 0.000000
v -2.044268 1.228765 0.000000
v -2.010367 1.218022 0.000000
v -1.975349 1.213996 0.000000
v -1.940560 1.216843 0.000000
v -1.907336 1.226453 0.000000
v -1.876955 1.242458 0.000000
v -2.134596 1.493452 0.000000
v -2.151280 1.461613 0.000000
v -2.161433 1.427130 0.000000
v -2.164662 1.391330 0.000000
v -2.160846 1.355587 0.000000
v -2.150130 1.321275 0.000000
v -2.132926 1.289713 0.000000
v -2.109895 1.262114 0.000000
v -2.081922 1.239539 0.000000
v -2.050083 1.222855 0.000000
v -2.015600 1.212702 0.000000
v -1.979799 1.209473 0.000000
v -1.944057 1.213289 0.000000
v -1.909745 1.224005 0.000000
v -1.878183 1.241209 0.000000
v -2.133368 1.494701 -0.060291
v -2.148872 1.464061 -0.068415
v -2.157936 1.430685 -0.075902
v -2.160213 1.395853 -0.082464
v -2.155613 1.360906 -0.087850
v -2.144315 1.327186 -0.091852
v -2.126753 1.295988 -0.094316
v -2.103601 1.268512 -0.095148
v -2.075749 1.245814 -0.094316
v -2.044268 1.228765 -0.091852
v -2.010367 1.218022 -0.087850
v -1.975349 1.213996 -0.082464
v -1.940560 1.216843 -0.075902
v -1.907336 1.226453 -0.068415
v -1.876955 1.242458 -0.060291
v -2.129805 1.498323 -0.067912
v -2.141882 1.471166 -0.083365
v -2.147789 1.441000 -0.097606
v -2.147297 1.408983 -0.110088
v -2.140426 1.376344 -0.120332
v -2.127440 1.344340 -0.127944
v -2.108839 1.314198 -0.132632
v -2.085336 1.287079 -0.134215
v -2.057835 1.264024 -0.132632
v -2.027393 1.245919 -0.127944
v -1.995180 1.233460 -0.120332
v -1.962434 1.227125 -0.110088
v -1.930412 1.227158 -0.097606
v -1.900347 1.233558 -0.083365
v -1.873392 1.246080 -0.067912
v -2.124254 1.503965 -0.073961
v -2.130995 1.482233 -0.095229
v -2.131983 1.457067 -0.114831
v -2.127180 1.429431 -0.132011
v -2.116772 1.400390 -0.146111
v -2.101157 1.371057 -0.156588
v -2.080936 1.342562 -0.163040
v -2.056887 1.315999 -0.165218
v -2.029933 1.292388 -0.163040
v -2.001110 1.272637 -0.156588
v -1.971526 1.257505 -0.146111
v -1.942317 1.247574 -0.132011
v -1.914607 1.243225 -0.114831
v -1.889460 1.244625 -0.095229
v -1.867842 1.251722 -0.073961
v -2.117261 1.511074 -0.077844
v -2.117277 1.496178 -0.102847
v -2.112067 1.477312 -0.125889
v -2.101832 1.455198 -0.146086
v -2.086966 1.430689 -0.162662
v -2.057439 1.414557 -0.178319
v -2.050942 1.375302 -0.180659
v -2.022604 1.347424 -0.183552
v -1.983247 1.341571 -0.185893
v -1.967991 1.306303 -0.174978
v -1.941720 1.287804 -0.162662
v -1.916969 1.273341 -0.146086
v -1.894691 1.263470 -0.125889
v -1.875741 1.258570 -0.102847
v -1.860849 1.258831 -0.077844
v -2.109509 1.518954 -0.079182
v -2.089990 1.499754 -0.129700
v -2.073734 1.483761 -0.150936
v -2.053926 1.464275 -0.168365
v -1.981302 1.392833 -0.191982
v -1.931279 1.343622 -0.181315
v -1.908679 1.321391 -0.168365
v -1.888871 1.301904 -0.150936
v -1.872614 1.285912 -0.129700
v -1.853096 1.266711 -0.079182
v -0.787233 2.004515 0.000000
v -0.758971 1.479736 0.000000
v -0.824549 0.876216 0.000000
v -0.734741 1.774093 0.000000
v -0.748507 1.161047 0.000000
v -0.746856 1.626915 0.000000
v -0.758971 1.479736 -0.278849
v -0.734741 1.774093 -0.278851
v -0.748507 1.161047 -0.278847
v -0.746856 1.626915 -0.278850
v 1.846625 1.323296 0.149662
v 1.598941 1.715365 0.133929
v 1.821436 1.776498 0.149662
v 1.605504 1.535738 0.133929
v 2.000855 1.548864 0.149662
v 1.080465 1.502923 0.128367
v 0.420861 1.919847 0.059758
v 0.437293 1.437293 0.180338
v -0.324013 1.454471 0.289935
v -1.193929 1.505001 0.248721
v -1.865406 1.327850 0.129042
v -2.062058 1.293065 0.129578
v 0.871697 1.480950 0.128622
v 1.982807 1.687900 0.149662
v 1.641600 1.658366 0.133929
v 1.114953 1.669576 0.128367
v 0.468455 1.711385 0.180338
v -0.301300 1.793789 0.289938
v -1.168183 1.754397 0.248721
v -1.901643 1.510749 0.128194
v -2.092262 1.494266 0.129578
v 0.914916 1.690136 0.128622
v 1.654726 1.426235 0.133929
v 1.969681 1.416391 0.149662
v 1.124733 1.339552 0.128367
v 0.491450 1.192735 0.180338
v -0.304067 1.132046 0.289932
v -1.192947 1.190048 0.248721
v -1.655457 1.176424 0.128367
v -2.122303 1.186690 0.128367
v 0.919276 1.283835 0.128622
v -1.651211 1.634863 0.146769
v -1.657898 1.288993 0.128367
v -2.156936 1.514022 0.129578
v -2.135105 1.258722 0.128367
v -1.896501 1.273857 0.129578
v -1.904074 1.574442 0.129578
v -1.888880 1.181557 0.129578
v -1.955211 1.280141 0.129653
v -1.988899 1.537423 0.130615
v 1.623552 1.597052 0.133929
v 1.097709 1.586249 0.128367
v 0.452874 1.574339 0.180338
v -0.312656 1.624130 0.289936
v -1.181056 1.629699 0.248721
v -1.654555 1.461928 0.128367
v -2.146020 1.386372 0.129578
v 0.893306 1.585543 0.128622
v 1.991831 1.618382 0.149662
v -1.849475 1.427064 0.127685
v -2.109907 1.387410 0.130680
v 2.464183 0.790053 0.053385
v 2.463302 2.479132 0.053385
v 2.189996 1.557979 0.053385
v 2.282850 1.957559 0.053385
v 2.281878 1.256874 0.053385
v 2.189328 1.660160 0.053385
v 0.441729 2.390776 0.061203
v 0.512404 2.584008 0.061203
v 0.175996 2.443205 0.061203
v 1.206781 1.941510 0.034049
v 1.246521 2.102719 0.034049
v -0.094125 2.252909 0.061203
v 0.586246 2.101623 0.061203
v 1.336908 1.797550 0.034049
v 1.059655 1.965791 0.034049
v 0.277621 0.421547 0.039192
v 0.143620 1.443920 0.209712
v 0.171522 1.743172 0.209715
v 0.184580 1.169324 0.209709
v 0.157571 1.593546 0.209714
v 0.339223 2.411000 0.053951
v 0.323793 2.159981 0.053951
v -0.144141 0.590962 0.039192
v 0.129679 0.554391 0.039192
v 1.259315 0.794191 0.031411
v 1.362866 1.221678 0.031411
v 1.181325 1.030090 0.031411
v 0.975358 0.941154 0.031411
v -2.102070 1.511637 0.105472
v -2.039613 1.450195 0.177425
v -2.006804 1.417920 0.189290
v -1.947906 1.359979 0.186787
v -1.860535 1.274029 0.105472
v -2.101756 1.526835 0.077844
v -2.086863 1.527095 0.102847
v -2.067914 1.522195 0.125889
v -2.045635 1.512324 0.146086
v -2.020885 1.497861 0.162662
v -2.004272 1.468603 0.178319
v -1.964915 1.462750 0.180659
v -1.936577 1.434872 0.183552
v -1.930080 1.395617 0.185893
v -1.894566 1.380942 0.174978
v -1.875639 1.354977 0.162662
v -1.860772 1.330467 0.146086
v -1.850537 1.308354 0.125889
v -1.845328 1.289487 0.102847
v -1.845344 1.274592 0.077844
v -2.094763 1.533944 0.073961
v -2.073145 1.541040 0.095229
v -2.047998 1.542440 0.114831
v -2.020288 1.538091 0.132011
v -1.991079 1.528160 0.146111
v -1.961495 1.513029 0.156588
v -1.932672 1.493278 0.163040
v -1.905718 1.469667 0.165218
v -1.881668 1.443103 0.163040
v -1.861447 1.414608 0.156588
v -1.845833 1.385276 0.146111
v -1.835424 1.356234 0.132011
v -1.830622 1.328599 0.114831
v -1.831609 1.303432 0.095229
v -1.838350 1.281701 0.073961
v -2.089213 1.539585 0.067912
v -2.062258 1.552106 0.083365
v -2.032193 1.558507 0.097606
v -2.000171 1.558540 0.110088
v -1.967425 1.552205 0.120332
v -1.935212 1.539746 0.127944
v -1.904770 1.521641 0.132632
v -1.877269 1.498586 0.134215
v -1.853766 1.471467 0.132632
v -1.835164 1.441326 0.127944
v -1.822179 1.409321 0.120332
v -1.815308 1.376683 0.110088
v -1.814816 1.344665 0.097606
v -1.820723 1.314499 0.083365
v -1.832800 1.287342 0.067912
v -2.085649 1.543208 0.060291
v -2.055268 1.559212 0.068415
v -2.022045 1.568822 0.075902
v -1.987256 1.571669 0.082464
v -1.952238 1.567643 0.087850
v -1.918337 1.556900 0.091852
v -1.886855 1.539851 0.094316
v -1.859004 1.517153 0.095148
v -1.835852 1.489677 0.094316
v -1.818290 1.458479 0.091852
v -1.806992 1.424759 0.087850
v -1.802392 1.389812 0.082464
v -1.804669 1.354980 0.075902
v -1.813733 1.321604 0.068415
v -1.829237 1.290965 0.060291
v -2.000171 1.558540 -0.006403
v -1.967425 1.552205 -0.016647
v -1.935212 1.539746 -0.024260
v -1.904770 1.521641 -0.028947
v -1.877269 1.498586 -0.030530
v -1.853766 1.471467 -0.028947
v -1.835164 1.441326 -0.024260
v -1.822179 1.409321 -0.016647
v -1.815308 1.376683 -0.006403
v -2.047998 1.542440 -0.011146
v -2.020287 1.538091 -0.028326
v -1.991079 1.528160 -0.042426
v -1.961495 1.513029 -0.052903
v -1.932672 1.493278 -0.059355
v -1.905718 1.469667 -0.061533
v -1.881668 1.443103 -0.059355
v -1.861447 1.414608 -0.052903
v -1.845833 1.385276 -0.042426
v -1.835424 1.356234 -0.028326
v -1.830622 1.328599 -0.011146
v -2.067914 1.522195 -0.022204
v -2.045636 1.512324 -0.042401
v -2.020885 1.497861 -0.058977
v -1.994614 1.479362 -0.071293
v -1.967830 1.457538 -0.078878
v -1.941565 1.433227 -0.081439
v -1.916827 1.407364 -0.078878
v -1.894566 1.380942 -0.071293
v -1.875639 1.354977 -0.058977
v -1.860772 1.330467 -0.042401
v -1.850537 1.308354 -0.022204
v -2.089990 1.499754 -0.026015
v -2.073734 1.483761 -0.047251
v -2.053926 1.464275 -0.064680
v -2.031326 1.442043 -0.077630
v -2.006804 1.417920 -0.085605
v -1.981302 1.392833 -0.088297
v -1.955801 1.367746 -0.085605
v -1.931279 1.343622 -0.077630
v -1.908679 1.321391 -0.064680
v -1.888871 1.301904 -0.047251
v -1.872614 1.285912 -0.026015
v -2.112067 1.477312 -0.022204
v -2.101832 1.455198 -0.042401
v -2.086966 1.430689 -0.058977
v -2.068038 1.404724 -0.071293
v -2.045778 1.378302 -0.078878
v -2.021040 1.352438 -0.081439
v -1.994774 1.328127 -0.078878
v -1.967991 1.306303 -0.071293
v -1.941720 1.287804 -0.058977
v -1.916969 1.273341 -0.042401
v -1.894691 1.263470 -0.022205
v -2.131983 1.457067 -0.011146
v -2.127180 1.429431 -0.028326
v -2.116772 1.400390 -0.042426
v -2.101157 1.371057 -0.052903
v -2.080937 1.342562 -0.059355
v -2.056887 1.315999 -0.061533
v -2.029933 1.292388 -0.059355
v -2.001110 1.272637 -0.052903
v -1.971526 1.257505 -0.042426
v -1.942317 1.247574 -0.028326
v -1.914607 1.243225 -0.011146
v -2.147297 1.408983 -0.006403
v -2.140426 1.376344 -0.016647
v -2.127440 1.344340 -0.024259
v -2.108839 1.314198 -0.028947
v -2.085336 1.287079 -0.030530
v -2.057835 1.264024 -0.028947
v -2.027393 1.245919 -0.024259
v -1.995180 1.233460 -0.016647
v -1.962434 1.227125 -0.006403
v -2.133368 1.494701 0.060291
v -2.148872 1.464061 0.068415
v -2.157936 1.430685 0.075902
v -2.160213 1.395853 0.082464
v -2.155613 1.360906 0.087850
v -2.144315 1.327186 0.091852
v -2.126753 1.295988 0.094316
v -2.103601 1.268512 0.095148
v -2.075749 1.245814 0.094316
v -2.044268 1.228765 0.091852
v -2.010367 1.218022 0.087850
v -1.975349 1.213996 0.082464
v -1.940560 1.216843 0.075902
v -1.907336 1.226453 0.068415
v -1.876955 1.242458 0.060291
v -2.129805 1.498323 0.067912
v -2.141882 1.471166 0.083365
v -2.147789 1.441000 0.097606
v -2.147297 1.408983 0.110088
v -2.140426 1.376344 0.120332
v -2.127440 1.344340 0.127944
v -2.108839 1.314198 0.132632
v -2.085336 1.287079 0.134215
v -2.057835 1.264024 0.132632
v -2.027393 1.245919 0.127944
v -1.995180 1.233460 0.120332
v -1.962434 1.227125 0.110088
v -1.930412 1.227158 0.097606
v -1.900347 1.233558 0.083365
v -1.873392 1.246080 0.067912
v -2.124254 1.503965 0.073961
v -2.130995 1.482233 0.095229
v -2.131983 1.457067 0.114831
v -2.127180 1.429431 0.132011
v -2.116772 1.400390 0.146111
v -2.101157 1.371057 0.156588
v -2.080936 1.342562 0.163040
v -2.056887 1.315999 0.165218
v -2.029933 1.292388 0.163040
v -2.001110 1.272637 0.156588
v -1.971526 1.257505 0.146111
v -1.942317 1.247574 0.132011
v -1.914607 1.243225 0.114831
v -1.889460 1.244625 0.095229
v -1.867842 1.251722 0.073961
v -2.117261 1.511074 0.077844
v -2.117277 1.496178 0.102847
v -2.112067 1.477312 0.125889
v -2.101832 1.455198 0.146086
v -2.086966 1.430689 0.162662
v -2.057439 1.414557 0.178319
v -2.050942 1.375302 0.180659
v -2.022604 1.347424 0.183552
v -1.983247 1.341571 0.185893
v -1.967991 1.306303 0.174978
v -1.941720 1.287804 0.162662
v -1.916969 1.273341 0.146086
v -1.894691 1.263470 0.125889
v -1.875741 1.258570 0.102847
v -1.860849 1.258831 0.077844
v -2.109509 1.518954 0.079182
v -2.089990 1.499754 0.129700
v -2.073734 1.483761 0.150936
v -2.053926 1.464275 0.168365
v -1.981302 1.392833 0.191982
v -1.931279 1.343622 0.181315
v -1.908679 1.321391 0.168365
v -1.888871 1.301904 0.150936
v -1.872614 1.285912 0.129700
v -1.853096 1.266711 0.079182
v -0.758971 1.479736 0.278849
v -0.734741 1.774093 0.278851
v -0.748507 1.161047 0.278847
v -0.746856 1.626915 0.278850
vn -0.0000 -0.0000 -1.0000
vn 0.0367 0.0235 0.9991
vn -0.1921 0.0405 0.9805
vn -0.0458 0.0434 0.9980
vn 0.0454 0.0636 0.9969
vn 0.0308 0.0034 0.9995
vn -0.1877 -0.0245 0.9819
vn -0.2115 -0.0223 0.9771
vn 0.0229 0.0003 0.9997
vn 0.0665 -0.6068 0.7920
vn -0.0824 -0.7009 0.7084
vn -0.0240 -0.6670 0.7447
vn 0.0037 0.0002 1.0000
vn 0.0047 0.0016 1.0000
vn -0.1632 -0.6794 0.7154
vn -0.1647 -0.6549 0.7376
vn -0.1032 -0.5946 0.7973
vn -0.1224 -0.5952 0.7942
vn -0.0582 -0.0134 0.9982
vn -0.0672 -0.0018 0.9977
vn -0.1063 -0.0046 0.9943
vn -0.1064 -0.0223 0.9941
vn -0.1033 -0.6432 0.7587
vn -0.1184 -0.6612 0.7408
vn -0.0250 -0.7255 0.6877
vn -0.0442 -0.7222 0.6902
vn -0.1294 -0.0173 0.9914
vn -0.1349 -0.0027 0.9909
vn -0.0670 -0.0009 0.9978
vn -0.0738 -0.0082 0.9972
vn 0.0868 -0.7536 0.6515
vn 0.0879 -0.7558 0.6489
vn 0.1754 -0.7292 0.6615
vn 0.1650 -0.7351 0.6576
vn 0.0455 0.0012 0.9990
vn 0.0478 -0.0015 0.9989
vn 0.1646 -0.0055 0.9863
vn 0.1592 0.0016 0.9872
vn 0.2448 -0.6587 0.7115
vn 0.2425 -0.6480 0.7220
vn 0.1240 -0.0034 0.9923
vn 0.1255 0.0009 0.9921
vn 0.2335 -0.6780 0.6970
vn 0.2353 -0.6402 0.7313
vn 0.2745 -0.7264 0.6301
vn 0.4310 -0.7912 0.4338
vn -0.0003 0.0002 1.0000
vn -0.0018 -0.0027 1.0000
vn 0.2055 -0.0182 0.9785
vn 0.1449 0.0054 0.9894
vn 0.4865 -0.8025 0.3454
vn 0.3842 -0.0462 0.9221
vn 0.3695 0.0130 0.9291
vn 0.0047 -0.0012 1.0000
vn 0.0052 -0.0013 1.0000
vn -0.0538 0.0083 0.9985
vn -0.0592 0.0091 0.9982
vn 0.2544 -0.0827 0.9636
vn 0.5738 -0.2029 0.7934
vn 0.4563 -0.1554 0.8761
vn 0.1488 0.0099 0.9888
vn 0.1294 0.0167 0.9914
vn 0.1331 0.0568 0.9895
vn 0.1239 0.0258 0.9920
vn 0.0474 -0.0041 0.9989
vn 0.0457 -0.0040 0.9989
vn -0.1329 0.0117 0.9911
vn -0.1326 0.0117 0.9911
vn -0.0732 0.0059 0.9973
vn -0.0712 0.0057 0.9974
vn -0.1069 0.0140 0.9942
vn -0.1078 0.0141 0.9941
vn 0.0266 -0.0028 0.9996
vn -0.1983 0.0150 0.9800
vn -0.1963 0.7074 0.6790
vn -0.1582 0.7146 0.6815
vn -0.2382 0.6823 0.6911
vn -0.2313 0.6729 0.7026
vn 0.2856 0.7037 0.6505
vn 0.2737 0.7053 0.6539
vn 0.4367 0.6731 0.5968
vn 0.1234 0.6248 0.7709
vn 0.1207 0.6129 0.7809
vn 0.0985 0.6094 0.7867
vn 0.0900 0.6254 0.7751
vn 0.1156 0.5477 0.8286
vn 0.1126 0.5436 0.8318
vn 0.0606 0.6820 0.7289
vn 0.0592 0.6853 0.7258
vn -0.1313 0.6714 0.7294
vn -0.1336 0.6670 0.7330
vn -0.0428 0.6949 0.7178
vn -0.0241 0.6964 0.7173
vn -0.1868 0.6566 0.7308
vn -0.1736 0.6548 0.7356
vn 0.1722 0.6810 0.7118
vn 0.0144 0.7117 0.7023
vn 0.3836 0.6090 0.6942
vn 0.0080 0.0362 0.9993
vn -0.0025 -0.0066 1.0000
vn 0.0134 0.0055 0.9999
vn 0.0095 -0.0147 0.9998
vn 0.0097 -0.0101 0.9999
vn 0.0023 0.0243 0.9997
vn 0.0083 0.0246 0.9997
vn 0.0151 -0.0132 0.9998
vn 0.0314 0.0436 0.9986
vn 0.0393 0.0207 0.9990
vn -0.4243 0.0460 0.9043
vn -0.2449 0.0226 0.9693
vn -0.2193 -0.0232 0.9754
vn -0.2596 -0.0308 0.9652
vn -0.4057 -0.0393 0.9131
vn -0.2067 0.0065 0.9784
vn -0.0161 0.0184 0.9997
vn 0.0071 0.0234 0.9997
vn 0.0266 0.0209 0.9994
vn 0.0069 0.0350 0.9994
vn 0.0545 0.1104 0.9924
vn 0.0605 0.1225 0.9906
vn -0.0000 -0.0000 1.0000
vn 0.0568 0.0539 0.9969
vn 0.0244 0.1962 0.9803
vn 0.0651 0.1951 0.9786
vn 0.0410 0.2606 0.9646
vn 0.0869 0.1760 0.9806
vn 0.1242 0.0262 0.9919
vn 0.0866 0.0188 0.9961
vn 0.0033 -0.1117 0.9937
vn 0.0569 -0.0907 0.9942
vn 0.5732 0.8194 -0.0000
vn 0.3727 0.9279 -0.0000
vn 0.5661 0.8244 -0.0000
vn -0.9496 0.3135 -0.0000
vn -0.9450 0.3270 -0.0000
vn -0.9447 -0.3281 -0.0000
vn -0.9886 -0.1508 -0.0000
vn -0.9889 0.1485 -0.0000
vn -0.1847 -0.9828 -0.0000
vn -0.9315 -0.3638 -0.0000
vn 0.6535 0.7569 -0.0000
vn 0.7383 -0.6745 -0.0000
vn -0.9392 0.3435 -0.0000
vn 0.5759 -0.8175 -0.0000
vn 0.3861 -0.9225 -0.0000
vn 0.4839 -0.8751 -0.0000
vn -0.9709 0.2393 -0.0000
vn 0.7438 0.6684 -0.0000
vn -0.7418 -0.6706 -0.0000
vn -0.6681 -0.7441 -0.0000
vn 0.5911 -0.8066 -0.0000
vn -0.9996 0.0291 -0.0000
vn -0.8945 -0.4471 -0.0000
vn 0.4596 0.8881 -0.0000
vn 0.2649 -0.9643 -0.0000
vn 0.0819 -0.9966 -0.0000
vn 0.1018 -0.9948 -0.0000
vn 0.0214 -0.9998 -0.0000
vn -0.9495 -0.3139 -0.0000
vn -0.7397 0.6730 -0.0000
vn -0.7259 0.6878 -0.0000
vn 0.8789 0.4770 -0.0000
vn -0.1007 0.9949 -0.0000
vn -0.1040 -0.9946 -0.0000
vn 0.6250 -0.6148 -0.4810
vn 0.5352 -0.5265 -0.6606
vn 0.6505 -0.4183 -0.6340
vn 0.7075 -0.5364 -0.4603
vn -0.0991 0.0975 -0.9903
vn -0.2354 0.2316 -0.9439
vn -0.0837 0.3401 -0.9366
vn 0.0663 0.3004 -0.9515
vn 0.6951 -0.6838 -0.2217
vn 0.7311 -0.6481 -0.2132
vn -0.0040 0.0040 -1.0000
vn 0.1967 0.1723 -0.9652
vn -0.6951 0.6838 -0.2217
vn -0.7128 0.7012 -0.0150
vn -0.6600 0.7204 -0.2132
vn 0.7128 -0.7012 -0.0150
vn 0.1226 -0.1206 -0.9851
vn 0.2307 0.0285 -0.9726
vn -0.6250 0.6148 -0.4810
vn -0.5479 0.6986 -0.4603
vn 0.2207 -0.2171 -0.9509
vn 0.3806 -0.0364 -0.9240
vn -0.5352 0.5265 -0.6606
vn -0.4289 0.6435 -0.6340
vn 0.3235 -0.3182 -0.8911
vn 0.4803 -0.1692 -0.8606
vn -0.4318 0.4248 -0.7957
vn -0.3027 0.5669 -0.7662
vn 0.4318 -0.4248 -0.7957
vn 0.5717 -0.2933 -0.7662
vn -0.3349 0.3295 -0.8828
vn -0.1692 0.4833 -0.8589
vn 0.7171 -0.1757 -0.6744
vn 0.7680 -0.3235 -0.5528
vn -0.0397 0.6366 -0.7702
vn 0.0879 0.5546 -0.8275
vn 0.7891 -0.4678 -0.3981
vn 0.2188 0.4623 -0.8593
vn 0.7665 -0.6144 -0.1872
vn 0.3502 0.3396 -0.8730
vn -0.6269 0.7563 -0.1872
vn 0.4489 0.2225 -0.8654
vn -0.4807 0.7814 -0.3981
vn 0.5446 0.1086 -0.8316
vn -0.3361 0.7625 -0.5528
vn 0.6445 -0.0317 -0.7640
vn -0.1874 0.7142 -0.6744
vn -0.5974 0.7891 -0.1429
vn -0.4272 0.8544 -0.2958
vn 0.6292 0.3906 -0.6720
vn 0.7273 0.2456 -0.6409
vn -0.2612 0.8714 -0.4152
vn 0.8039 0.0886 -0.5882
vn -0.0912 0.8535 -0.5131
vn 0.8549 -0.0772 -0.5131
vn 0.0754 0.8052 -0.5882
vn 0.8756 -0.2469 -0.4152
vn 0.2337 0.7312 -0.6409
vn 0.8613 -0.4132 -0.2958
vn 0.3802 0.6355 -0.6720
vn 0.7988 -0.5844 -0.1429
vn 0.5127 0.5212 -0.6823
vn 0.1694 0.9454 -0.2785
vn 0.3488 0.8850 -0.3085
vn 0.9639 -0.1894 -0.1873
vn 0.9194 -0.3714 -0.1298
vn 0.5146 0.7928 -0.3268
vn 0.8306 -0.5528 -0.0671
vn 0.6613 0.6722 -0.3329
vn -0.5664 0.8214 -0.0671
vn 0.7842 0.5275 -0.3268
vn -0.3864 0.9132 -0.1298
vn 0.8791 0.3633 -0.3085
vn -0.2052 0.9606 -0.1873
vn 0.9425 0.1849 -0.2785
vn -0.0175 0.9712 -0.2376
vn 0.9714 -0.0016 -0.2376
vn 0.8214 0.5630 -0.0908
vn 0.9148 0.3952 -0.0830
vn -0.3815 0.9241 -0.0202
vn -0.1922 0.9807 -0.0373
vn 0.9747 0.2119 -0.0707
vn 0.0028 0.9985 -0.0549
vn 0.9983 0.0191 -0.0549
vn 0.1959 0.9781 -0.0707
vn 0.9837 -0.1761 -0.0373
vn 0.3802 0.9212 -0.0830
vn 0.9303 -0.3663 -0.0202
vn 0.5495 0.8305 -0.0908
vn 0.8385 -0.5449 -0.0075
vn 0.6982 0.7098 -0.0934
vn -0.5585 0.8294 -0.0075
vn 0.6821 0.1132 0.7224
vn 0.6826 0.2754 0.6769
vn 0.6620 0.2201 0.7164
vn 0.6933 0.0572 0.7184
vn -0.0414 0.5713 0.8197
vn -0.1044 0.3563 0.9285
vn -0.1864 0.6434 0.7425
vn -0.0934 0.6111 0.7860
vn 0.5719 -0.0321 0.8197
vn 0.6126 -0.0834 0.7860
vn 0.1020 0.6839 0.7224
vn 0.0458 0.6941 0.7184
vn 0.3579 -0.0985 0.9285
vn 0.6464 -0.1758 0.7425
vn 0.2642 0.6870 0.6769
vn 0.2092 0.6655 0.7164
vn 0.4082 0.6310 0.6597
vn 0.3547 0.5916 0.7240
vn 0.5298 0.5385 0.6552
vn 0.4812 0.4892 0.7274
vn 0.6242 0.4185 0.6597
vn 0.5857 0.3644 0.7240
vn 0.0956 0.5576 0.8246
vn 0.2247 0.4591 0.8595
vn 0.3447 0.3504 0.8709
vn 0.4553 0.2322 0.8595
vn 0.5559 0.1047 0.8246
vn -0.2392 0.5609 0.7926
vn -0.3851 0.6187 0.6848
vn -0.2856 0.6536 0.7009
vn 0.6445 -0.0317 0.7640
vn -0.1806 0.6990 0.6919
vn 0.7019 -0.1691 0.6919
vn -0.0423 0.6439 0.7640
vn 0.6582 -0.2748 0.7009
vn 0.5648 -0.2300 0.7926
vn 0.6249 -0.3749 0.6848
vn 0.3816 -0.0496 0.9230
vn 0.4803 -0.1692 0.8606
vn -0.4290 0.6145 0.6621
vn -0.3027 0.5669 0.7662
vn 0.5717 -0.2933 0.7662
vn -0.1771 0.4774 0.8606
vn 0.6214 -0.4188 0.6621
vn -0.0558 0.3807 0.9230
vn 0.6262 -0.4997 0.5984
vn 0.0602 0.2794 0.9583
vn 0.1714 0.1742 0.9697
vn 0.2784 0.0648 0.9583
vn -0.5099 0.6179 0.5985
vn -0.1070 0.1052 0.9887
vn 0.1070 -0.1052 0.9887
vn 0.2147 -0.2112 0.9536
vn -0.5860 0.5765 0.5694
vn -0.5362 0.5274 0.6591
vn 0.3235 -0.3182 0.8911
vn -0.4318 0.4248 0.7957
vn 0.4318 -0.4248 0.7957
vn -0.3235 0.3182 0.8911
vn 0.5362 -0.5274 0.6591
vn -0.2147 0.2112 0.9536
vn 0.5860 -0.5765 0.5694
vn 0.1771 -0.4774 0.8606
vn 0.3027 -0.5669 0.7662
vn -0.5717 0.2933 0.7662
vn -0.4803 0.1692 0.8606
vn 0.4290 -0.6145 0.6621
vn -0.3816 0.0496 0.9230
vn 0.5099 -0.6179 0.5985
vn -0.2784 -0.0648 0.9583
vn -0.1714 -0.1742 0.9697
vn -0.0602 -0.2794 0.9583
vn 0.0558 -0.3807 0.9230
vn -0.6262 0.4997 0.5984
vn -0.6214 0.4188 0.6621
vn -0.3447 -0.3504 0.8709
vn -0.2247 -0.4591 0.8595
vn -0.0956 -0.5576 0.8246
vn -0.6249 0.3749 0.6848
vn -0.6582 0.2748 0.7009
vn 0.0423 -0.6439 0.7640
vn -0.7019 0.1691 0.6919
vn 0.1806 -0.6990 0.6919
vn -0.6445 0.0317 0.7640
vn 0.2856 -0.6536 0.7009
vn -0.5559 -0.1047 0.8246
vn 0.3851 -0.6187 0.6848
vn -0.4553 -0.2322 0.8595
vn -0.6126 0.0834 0.7860
vn -0.6933 -0.0572 0.7184
vn 0.0934 -0.6111 0.7860
vn 0.1864 -0.6434 0.7425
vn -0.6620 -0.2201 0.7164
vn 0.2392 -0.5609 0.7926
vn -0.5857 -0.3644 0.7240
vn -0.4812 -0.4892 0.7274
vn -0.3547 -0.5916 0.7240
vn -0.2092 -0.6655 0.7164
vn -0.5648 0.2300 0.7926
vn -0.6464 0.1758 0.7425
vn -0.0458 -0.6941 0.7184
vn -0.5298 -0.5385 0.6552
vn -0.4082 -0.6310 0.6597
vn -0.2642 -0.6870 0.6769
vn -0.1020 -0.6839 0.7224
vn -0.3579 0.0985 0.9285
vn -0.5719 0.0321 0.8197
vn 0.0414 -0.5713 0.8197
vn -0.6821 -0.1132 0.7224
vn 0.1044 -0.3563 0.9285
vn -0.6826 -0.2754 0.6769
vn -0.6242 -0.4185 0.6597
vn -0.9303 0.3663 -0.0202
vn -0.8385 0.5449 -0.0075
vn -0.8306 0.5528 -0.0671
vn -0.9194 0.3714 -0.1298
vn -0.3802 -0.9212 -0.0830
vn -0.5495 -0.8305 -0.0908
vn -0.5146 -0.7928 -0.3268
vn -0.3488 -0.8850 -0.3085
vn -0.9837 0.1761 -0.0373
vn -0.9639 0.1894 -0.1873
vn -0.1959 -0.9781 -0.0707
vn -0.1694 -0.9454 -0.2785
vn -0.9983 -0.0191 -0.0549
vn -0.9714 0.0016 -0.2376
vn -0.0028 -0.9985 -0.0549
vn 0.0175 -0.9712 -0.2376
vn -0.9747 -0.2119 -0.0707
vn -0.9425 -0.1849 -0.2785
vn 0.1921 -0.9807 -0.0373
vn 0.2052 -0.9606 -0.1873
vn -0.9148 -0.3952 -0.0830
vn -0.8791 -0.3633 -0.3085
vn 0.3815 -0.9241 -0.0202
vn 0.3864 -0.9132 -0.1298
vn -0.8214 -0.5630 -0.0908
vn -0.7842 -0.5275 -0.3268
vn 0.5585 -0.8294 -0.0075
vn 0.5664 -0.8214 -0.0671
vn -0.6982 -0.7098 -0.0934
vn -0.6613 -0.6722 -0.3329
vn -0.8039 -0.0886 -0.5882
vn -0.7273 -0.2456 -0.6409
vn 0.2612 -0.8714 -0.4152
vn 0.4272 -0.8544 -0.2958
vn -0.6292 -0.3906 -0.6720
vn 0.5974 -0.7891 -0.1429
vn -0.5127 -0.5212 -0.6823
vn -0.7988 0.5844 -0.1428
vn -0.3802 -0.6355 -0.6720
vn -0.8613 0.4132 -0.2958
vn -0.2337 -0.7312 -0.6409
vn -0.8756 0.2469 -0.4152
vn -0.0754 -0.8052 -0.5882
vn -0.8549 0.0772 -0.5131
vn 0.0912 -0.8535 -0.5131
vn -0.2151 -0.4525 -0.8654
vn -0.0996 -0.5463 -0.8316
vn -0.7891 0.4678 -0.3981
vn -0.7679 0.3235 -0.5528
vn 0.0423 -0.6439 -0.7640
vn -0.7171 0.1757 -0.6744
vn 0.1874 -0.7142 -0.6744
vn -0.6372 0.0293 -0.7702
vn 0.3361 -0.7625 -0.5528
vn -0.5531 -0.0970 -0.8275
vn 0.4806 -0.7814 -0.3981
vn -0.4586 -0.2263 -0.8593
vn 0.6269 -0.7563 -0.1872
vn -0.3338 -0.3557 -0.8730
vn -0.7665 0.6144 -0.1872
vn 0.4289 -0.6435 -0.6340
vn 0.5479 -0.6986 -0.4603
vn -0.3415 0.0781 -0.9366
vn -0.2993 -0.0713 -0.9515
vn 0.6600 -0.7204 -0.2132
vn -0.1690 -0.1995 -0.9652
vn -0.7311 0.6481 -0.2132
vn -0.0247 -0.2311 -0.9726
vn -0.7074 0.5364 -0.4603
vn 0.0426 -0.3800 -0.9240
vn -0.6505 0.4183 -0.6340
vn 0.1771 -0.4774 -0.8606
vn -0.5717 0.2933 -0.7662
vn 0.3027 -0.5669 -0.7662
vn -0.4860 0.1613 -0.8589
vn 0.0367 0.0235 -0.9991
vn 0.0454 0.0636 -0.9969
vn -0.0458 0.0434 -0.9980
vn -0.1921 0.0405 -0.9805
vn 0.0308 0.0034 -0.9995
vn 0.0229 0.0003 -0.9997
vn -0.2115 -0.0223 -0.9771
vn -0.1877 -0.0245 -0.9819
vn 0.0665 -0.6068 -0.7920
vn -0.0240 -0.6670 -0.7447
vn -0.0824 -0.7009 -0.7084
vn 0.0047 0.0016 -1.0000
vn 0.0037 0.0002 -1.0000
vn -0.1632 -0.6794 -0.7154
vn -0.1224 -0.5952 -0.7942
vn -0.1032 -0.5946 -0.7973
vn -0.1647 -0.6549 -0.7376
vn -0.0582 -0.0134 -0.9982
vn -0.1064 -0.0223 -0.9941
vn -0.1063 -0.0046 -0.9943
vn -0.0672 -0.0018 -0.9977
vn -0.1033 -0.6432 -0.7587
vn -0.0442 -0.7222 -0.6902
vn -0.0250 -0.7255 -0.6877
vn -0.1184 -0.6612 -0.7408
vn -0.1294 -0.0173 -0.9914
vn -0.0738 -0.0082 -0.9972
vn -0.0670 -0.0009 -0.9978
vn -0.1349 -0.0027 -0.9909
vn 0.0868 -0.7536 -0.6515
vn 0.1650 -0.7351 -0.6576
vn 0.1754 -0.7292 -0.6615
vn 0.0879 -0.7558 -0.6489
vn 0.0455 0.0012 -0.9990
vn 0.1592 0.0016 -0.9872
vn 0.1646 -0.0055 -0.9863
vn 0.0478 -0.0015 -0.9989
vn 0.2425 -0.6480 -0.7220
vn 0.2448 -0.6587 -0.7115
vn 0.1255 0.0009 -0.9921
vn 0.1240 -0.0034 -0.9923
vn 0.2335 -0.6780 -0.6970
vn 0.4310 -0.7912 -0.4338
vn 0.2745 -0.7264 -0.6301
vn 0.2353 -0.6402 -0.7313
vn -0.0003 0.0002 -1.0000
vn 0.1449 0.0054 -0.9894
vn 0.2055 -0.0182 -0.9785
vn -0.0018 -0.0027 -1.0000
vn 0.4865 -0.8025 -0.3454
vn 0.3695 0.0130 -0.9291
vn 0.3842 -0.0462 -0.9221
vn 0.0047 -0.0012 -1.0000
vn -0.0592 0.0091 -0.9982
vn -0.0538 0.0083 -0.9985
vn 0.0052 -0.0013 -1.0000
vn 0.2544 -0.0827 -0.9636
vn 0.4563 -0.1554 -0.8761
vn 0.5738 -0.2029 -0.7934
vn 0.1488 0.0099 -0.9888
vn 0.1239 0.0258 -0.9920
vn 0.1331 0.0568 -0.9895
vn 0.1294 0.0167 -0.9915
vn 0.0474 -0.0041 -0.9989
vn 0.0457 -0.0040 -0.9989
vn -0.1329 0.0117 -0.9911
vn -0.0712 0.0057 -0.9974
vn -0.0732 0.0059 -0.9973
vn -0.1326 0.0117 -0.9911
vn -0.1078 0.0141 -0.9941
vn -0.1069 0.0140 -0.9942
vn 0.0266 -0.0028 -0.9996
vn -0.1983 0.0150 -0.9800
vn -0.1963 0.7074 -0.6790
vn -0.2313 0.6729 -0.7026
vn -0.2382 0.6823 -0.6911
vn -0.1582 0.7146 -0.6815
vn 0.2856 0.7037 -0.6505
vn 0.4367 0.6731 -0.5968
vn 0.2737 0.7053 -0.6539
vn 0.1234 0.6248 -0.7709
vn 0.1207 0.6129 -0.7809
vn 0.0985 0.6094 -0.7867
vn 0.1126 0.5436 -0.8318
vn 0.1156 0.5477 -0.8286
vn 0.0900 0.6254 -0.7751
vn 0.0606 0.6820 -0.7289
vn 0.0592 0.6853 -0.7258
vn -0.1313 0.6714 -0.7294
vn -0.0241 0.6964 -0.7173
vn -0.0428 0.6949 -0.7178
vn -0.1336 0.6670 -0.7330
vn -0.1736 0.6548 -0.7356
vn -0.1868 0.6566 -0.7308
vn 0.1722 0.6810 -0.7118
vn 0.0144 0.7117 -0.7023
vn 0.3836 0.6090 -0.6942
vn 0.0080 0.0362 -0.9993
vn -0.0025 -0.0066 -1.0000
vn 0.0134 0.0055 -0.9999
vn 0.0097 -0.0101 -0.9999
vn 0.0095 -0.0147 -0.9998
vn 0.0023 0.0243 -0.9997
vn 0.0083 0.0246 -0.9997
vn 0.0151 -0.0132 -0.9998
vn 0.0393 0.0207 -0.9990
vn 0.0314 0.0436 -0.9986
vn -0.2449 0.0226 -0.9693
vn -0.4243 0.0460 -0.9043
vn -0.2596 -0.0308 -0.9652
vn -0.2193 -0.0232 -0.9754
vn -0.4057 -0.0393 -0.9131
vn -0.2067 0.0065 -0.9784
vn -0.0161 0.0184 -0.9997
vn 0.0069 0.0350 -0.9994
vn 0.0266 0.0209 -0.9994
vn 0.0071 0.0234 -0.9997
vn 0.0545 0.1104 -0.9924
vn 0.0605 0.1225 -0.9906
vn 0.0568 0.0539 -0.9969
vn 0.0244 0.1962 -0.9803
vn 0.0651 0.1951 -0.9786
vn 0.0410 0.2606 -0.9646
vn 0.0869 0.1760 -0.9806
vn 0.1242 0.0262 -0.9919
vn 0.0866 0.0188 -0.9961
vn 0.0033 -0.1117 -0.9937
vn 0.0569 -0.0907 -0.9942
vn 0.6250 -0.6148 0.4810
vn 0.7075 -0.5364 0.4603
vn 0.6505 -0.4183 0.6340
vn 0.5352 -0.5265 0.6606
vn -0.0991 0.0975 0.9903
vn 0.0663 0.3004 0.9515
vn -0.0837 0.3401 0.9366
vn -0.2354 0.2316 0.9439
vn 0.6951 -0.6838 0.2217
vn 0.7311 -0.6481 0.2132
vn -0.0040 0.0040 1.0000
vn 0.1967 0.1723 0.9652
vn -0.6951 0.6838 0.2217
vn -0.6600 0.7204 0.2132
vn -0.7128 0.7012 0.0150
vn 0.7128 -0.7012 0.0150
vn 0.1226 -0.1206 0.9851
vn 0.2307 0.0285 0.9726
vn -0.6250 0.6148 0.4810
vn -0.5479 0.6986 0.4603
vn 0.2207 -0.2171 0.9509
vn 0.3806 -0.0364 0.9240
vn -0.5352 0.5265 0.6606
vn -0.4289 0.6435 0.6340
vn -0.3349 0.3295 0.8828
vn -0.1692 0.4833 0.8589
vn 0.7680 -0.3235 0.5528
vn 0.7171 -0.1757 0.6744
vn 0.0879 0.5546 0.8275
vn -0.0397 0.6366 0.7702
vn 0.7891 -0.4678 0.3981
vn 0.2188 0.4623 0.8593
vn 0.7665 -0.6144 0.1872
vn 0.3502 0.3396 0.8730
vn -0.6269 0.7563 0.1872
vn 0.4489 0.2225 0.8654
vn -0.4807 0.7814 0.3981
vn 0.5446 0.1086 0.8316
vn -0.3361 0.7625 0.5528
vn -0.1874 0.7142 0.6744
vn -0.4272 0.8544 0.2958
vn -0.5974 0.7891 0.1429
vn 0.7273 0.2456 0.6409
vn 0.6292 0.3906 0.6720
vn -0.2612 0.8714 0.4152
vn 0.8039 0.0886 0.5882
vn -0.0912 0.8535 0.5131
vn 0.8549 -0.0772 0.5131
vn 0.0754 0.8052 0.5882
vn 0.8756 -0.2469 0.4152
vn 0.2337 0.7312 0.6409
vn 0.8613 -0.4132 0.2958
vn 0.3802 0.6355 0.6720
vn 0.7988 -0.5844 0.1429
vn 0.5127 0.5212 0.6823
vn 0.3488 0.8850 0.3085
vn 0.1694 0.9454 0.2785
vn 0.9194 -0.3714 0.1298
vn 0.9639 -0.1894 0.1873
vn 0.5146 0.7928 0.3268
vn 0.8306 -0.5528 0.0671
vn 0.6613 0.6722 0.3329
vn -0.5664 0.8214 0.0671
vn 0.7842 0.5275 0.3268
vn -0.3864 0.9132 0.1298
vn 0.8791 0.3633 0.3085
vn -0.2052 0.9606 0.1873
vn 0.9425 0.1849 0.2785
vn -0.0175 0.9712 0.2376
vn 0.9714 -0.0016 0.2376
vn 0.9148 0.3952 0.0830
vn 0.8214 0.5630 0.0908
vn -0.1922 0.9807 0.0373
vn -0.3815 0.9241 0.0202
vn 0.9747 0.2119 0.0707
vn 0.0028 0.9985 0.0549
vn 0.9983 0.0191 0.0549
vn 0.1959 0.9781 0.0707
vn 0.9837 -0.1761 0.0373
vn 0.3802 0.9212 0.0830
vn 0.9303 -0.3663 0.0202
vn 0.5495 0.8305 0.0908
vn 0.8385 -0.5449 0.0075
vn 0.6982 0.7098 0.0934
vn -0.5585 0.8294 0.0075
vn 0.6821 0.1132 -0.7224
vn 0.6933 0.0572 -0.7184
vn 0.6620 0.2201 -0.7164
vn 0.6826 0.2754 -0.6769
vn -0.0414 0.5713 -0.8197
vn -0.0934 0.6111 -0.7860
vn -0.1864 0.6434 -0.7425
vn -0.1044 0.3563 -0.9285
vn 0.5719 -0.0321 -0.8197
vn 0.6126 -0.0834 -0.7860
vn 0.1020 0.6839 -0.7224
vn 0.0458 0.6941 -0.7184
vn 0.3579 -0.0985 -0.9285
vn 0.6464 -0.1758 -0.7425
vn 0.2642 0.6870 -0.6769
vn 0.2092 0.6655 -0.7164
vn 0.4082 0.6310 -0.6597
vn 0.3547 0.5916 -0.7240
vn 0.5298 0.5385 -0.6552
vn 0.4812 0.4892 -0.7274
vn 0.6242 0.4185 -0.6597
vn 0.5857 0.3644 -0.7240
vn 0.2247 0.4591 -0.8595
vn 0.0956 0.5576 -0.8246
vn 0.3447 0.3504 -0.8709
vn 0.4553 0.2322 -0.8595
vn 0.5559 0.1047 -0.8246
vn -0.2856 0.6536 -0.7009
vn -0.3851 0.6187 -0.6848
vn -0.2392 0.5609 -0.7926
vn -0.1806 0.6990 -0.6919
vn 0.7019 -0.1691 -0.6919
vn -0.0423 0.6439 -0.7640
vn 0.6582 -0.2748 -0.7009
vn 0.5648 -0.2300 -0.7926
vn 0.6249 -0.3749 -0.6848
vn 0.3816 -0.0496 -0.9230
vn -0.4290 0.6145 -0.6621
vn -0.1771 0.4774 -0.8606
vn 0.6214 -0.4188 -0.6621
vn -0.0558 0.3807 -0.9230
vn 0.6262 -0.4997 -0.5984
vn 0.0602 0.2794 -0.9583
vn 0.1714 0.1742 -0.9697
vn 0.2784 0.0648 -0.9583
vn -0.5099 0.6179 -0.5985
vn -0.1070 0.1052 -0.9887
vn 0.1070 -0.1052 -0.9887
vn 0.2147 -0.2112 -0.9536
vn -0.5362 0.5274 -0.6591
vn -0.5860 0.5765 -0.5694
vn -0.3235 0.3182 -0.8911
vn 0.5362 -0.5274 -0.6591
vn -0.2147 0.2112 -0.9536
vn 0.5860 -0.5765 -0.5694
vn -0.4803 0.1692 -0.8606
vn 0.4290 -0.6145 -0.6621
vn -0.3816 0.0496 -0.9230
vn 0.5099 -0.6180 -0.5985
vn -0.2784 -0.0648 -0.9583
vn -0.1714 -0.1742 -0.9697
vn -0.0602 -0.2794 -0.9583
vn 0.0558 -0.3807 -0.9230
vn -0.6214 0.4188 -0.6621
vn -0.6262 0.4997 -0.5984
vn -0.2247 -0.4591 -0.8595
vn -0.3447 -0.3504 -0.8709
vn -0.0956 -0.5576 -0.8246
vn -0.6582 0.2748 -0.7009
vn -0.6249 0.3749 -0.6848
vn -0.7019 0.1691 -0.6919
vn 0.1806 -0.6990 -0.6919
vn -0.6445 0.0317 -0.7640
vn 0.2856 -0.6536 -0.7009
vn -0.5559 -0.1047 -0.8246
vn 0.3851 -0.6187 -0.6848
vn -0.4553 -0.2322 -0.8595
vn -0.6933 -0.0572 -0.7184
vn -0.6126 0.0834 -0.7860
vn 0.1864 -0.6434 -0.7425
vn 0.0934 -0.6111 -0.7860
vn -0.6620 -0.2201 -0.7164
vn 0.2392 -0.5609 -0.7926
vn -0.5857 -0.3644 -0.7240
vn -0.4812 -0.4892 -0.7274
vn -0.3547 -0.5916 -0.7240
vn -0.2092 -0.6655 -0.7164
vn -0.6464 0.1758 -0.7425
vn -0.5648 0.2300 -0.7926
vn -0.0458 -0.6941 -0.7184
vn -0.4082 -0.6310 -0.6597
vn -0.5298 -0.5385 -0.6552
vn -0.2642 -0.6870 -0.6769
vn -0.1020 -0.6839 -0.7224
vn -0.5719 0.0321 -0.8197
vn -0.3579 0.0985 -0.9285
vn 0.0414 -0.5713 -0.8197
vn -0.6821 -0.1132 -0.7224
vn 0.1044 -0.3563 -0.9285
vn -0.6826 -0.2754 -0.6769
vn -0.6242 -0.4185 -0.6597
vn -0.9303 0.3663 0.0202
vn -0.9194 0.3714 0.1298
vn -0.8306 0.5528 0.0671
vn -0.8385 0.5449 0.0075
vn -0.3802 -0.9212 0.0830
vn -0.3488 -0.8850 0.3085
vn -0.5146 -0.7928 0.3268
vn -0.5495 -0.8305 0.0908
vn -0.9837 0.1761 0.0373
vn -0.9639 0.1894 0.1873
vn -0.1959 -0.9781 0.0707
vn -0.1694 -0.9454 0.2785
vn -0.9983 -0.0191 0.0549
vn -0.9714 0.0016 0.2376
vn -0.0028 -0.9985 0.0549
vn 0.0175 -0.9712 0.2376
vn -0.9747 -0.2119 0.0707
vn -0.9425 -0.1849 0.2785
vn 0.1921 -0.9807 0.0373
vn 0.2052 -0.9606 0.1873
vn -0.9148 -0.3952 0.0830
vn -0.8791 -0.3633 0.3085
vn 0.3815 -0.9241 0.0202
vn 0.3864 -0.9132 0.1298
vn -0.8214 -0.5630 0.0908
vn -0.7842 -0.5275 0.3268
vn 0.5585 -0.8294 0.0075
vn 0.5664 -0.8214 0.0671
vn -0.6982 -0.7098 0.0934
vn -0.6613 -0.6722 0.3329
vn -0.7273 -0.2456 0.6409
vn -0.8039 -0.0886 0.5882
vn 0.4272 -0.8544 0.2958
vn 0.2612 -0.8714 0.4152
vn -0.6292 -0.3906 0.6720
vn 0.5974 -0.7891 0.1429
vn -0.5127 -0.5212 0.6823
vn -0.7988 0.5844 0.1428
vn -0.3802 -0.6355 0.6720
vn -0.8613 0.4132 0.2958
vn -0.2337 -0.7312 0.6409
vn -0.8756 0.2469 0.4152
vn -0.0754 -0.8052 0.5882
vn -0.8549 0.0772 0.5131
vn 0.0912 -0.8535 0.5131
vn -0.0996 -0.5463 0.8316
vn -0.2151 -0.4525 0.8654
vn -0.7679 0.3235 0.5528
vn -0.7891 0.4678 0.3981
vn -0.7171 0.1757 0.6744
vn 0.1874 -0.7142 0.6744
vn -0.6372 0.0293 0.7702
vn 0.3361 -0.7625 0.5528
vn -0.5531 -0.0970 0.8275
vn 0.4807 -0.7814 0.3981
vn -0.4586 -0.2263 0.8593
vn 0.6269 -0.7563 0.1872
vn -0.3338 -0.3557 0.8730
vn -0.7665 0.6144 0.1872
vn 0.5479 -0.6986 0.4603
vn 0.4289 -0.6435 0.6340
vn -0.2993 -0.0713 0.9515
vn -0.3415 0.0781 0.9366
vn 0.6600 -0.7204 0.2132
vn -0.1690 -0.1995 0.9652
vn -0.7311 0.6481 0.2132
vn -0.0247 -0.2311 0.9726
vn -0.7074 0.5364 0.4603
vn 0.0426 -0.3800 0.9240
vn -0.6505 0.4183 0.6340
vn -0.4860 0.1613 0.8589
vt 0.000000 0.750000
vt 0.000000 1.000000
vt 1.000000 1.000000
vt 1.000000 0.750000
vt 0.000000 0.250000
vt 0.000000 0.500000
vt 1.000000 0.500000
vt 1.000000 0.250000
vt 0.000000 0.250000
vt 0.000000 0.250000
vt 0.000000 0.390271
vt 0.000000 0.625000
vt 0.000000 0.625000
vt 0.000000 0.625000
vt 0.000000 0.624940
vt 0.000000 0.624958
vt 0.000000 0.732248
vt 0.000000 0.733881
vt 0.000000 0.625000
vt 1.000000 0.625000
vt 0.000000 0.000000
vt 0.000000 0.143261
vt 1.000000 0.000000
vt 0.000000 0.624923
vt 0.000000 0.514333
vt 0.000000 0.516000
vt 0.000000 0.517667
vt 0.000000 0.735513
vt 0.000000 1.000000
vt 0.000000 0.250000
vt 0.750000 0.125000
vt 0.750000 0.187500
vt 0.700000 0.187500
vt 0.700000 0.125000
vt 0.750000 0.562500
vt 0.750000 0.625000
vt 0.700000 0.625000
vt 0.700000 0.562500
vt 0.750000 0.062500
vt 0.700000 0.062500
vt 0.750000 0.500000
vt 0.700000 0.500000
vt 0.750000 0.937500
vt 0.725000 1.000000
vt 0.700000 0.937500
vt 0.725000 0.000000
vt 0.750000 0.437500
vt 0.700000 0.437500
vt 0.750000 0.875000
vt 0.700000 0.875000
vt 0.750000 0.375000
vt 0.700000 0.375000
vt 0.750000 0.812500
vt 0.700000 0.812500
vt 0.750000 0.312500
vt 0.700000 0.312500
vt 0.750000 0.750000
vt 0.700000 0.750000
vt 0.750000 0.250000
vt 0.700000 0.250000
vt 0.750000 0.687500
vt 0.700000 0.687500
vt 0.650000 0.250000
vt 0.650000 0.187500
vt 0.650000 0.687500
vt 0.650000 0.625000
vt 0.650000 0.125000
vt 0.650000 0.562500
vt 0.650000 0.062500
vt 0.650000 0.500000
vt 0.675000 1.000000
vt 0.650000 0.937500
vt 0.675000 0.000000
vt 0.650000 0.437500
vt 0.650000 0.875000
vt 0.650000 0.375000
vt 0.650000 0.812500
vt 0.650000 0.312500
vt 0.650000 0.750000
vt 0.600000 0.937500
vt 0.600000 0.875000
vt 0.600000 0.437500
vt 0.600000 0.375000
vt 0.600000 0.812500
vt 0.600000 0.312500
vt 0.600000 0.750000
vt 0.600000 0.250000
vt 0.600000 0.687500
vt 0.600000 0.187500
vt 0.600000 0.625000
vt 0.600000 0.125000
vt 0.600000 0.562500
vt 0.600000 0.062500
vt 0.600000 0.500000
vt 0.625000 1.000000
vt 0.625000 0.000000
vt 0.550000 0.687500
vt 0.550000 0.625000
vt 0.550000 0.187500
vt 0.550000 0.125000
vt 0.550000 0.562500
vt 0.550000 0.062500
vt 0.550000 0.500000
vt 0.575000 1.000000
vt 0.550000 0.937500
vt 0.575000 0.000000
vt 0.550000 0.437500
vt 0.550000 0.875000
vt 0.550000 0.375000
vt 0.550000 0.812500
vt 0.550000 0.312500
vt 0.550000 0.750000
vt 0.550000 0.250000
vt 0.500000 0.437500
vt 0.500000 0.375000
vt 0.500000 0.875000
vt 0.500000 0.812500
vt 0.500000 0.312500
vt 0.500000 0.750000
vt 0.500000 0.250000
vt 0.500000 0.687500
vt 0.500000 0.187500
vt 0.500000 0.625000
vt 0.500000 0.125000
vt 0.500000 0.562500
vt 0.500000 0.062500
vt 0.500000 0.500000
vt 0.525000 1.000000
vt 0.500000 0.937500
vt 0.525000 0.000000
vt 0.450000 0.187500
vt 0.450000 0.125000
vt 0.450000 0.625000
vt 0.450000 0.562500
vt 0.450000 0.062500
vt 0.450000 0.500000
vt 0.475000 1.000000
vt 0.450000 0.937500
vt 0.475000 0.000000
vt 0.450000 0.437500
vt 0.450000 0.875000
vt 0.450000 0.375000
vt 0.450000 0.812500
vt 0.450000 0.312500
vt 0.450000 0.750000
vt 0.450000 0.250000
vt 0.450000 0.687500
vt 0.400000 0.875000
vt 0.400000 0.812500
vt 0.400000 0.375000
vt 0.400000 0.312500
vt 0.400000 0.750000
vt 0.400000 0.250000
vt 0.400000 0.687500
vt 0.400000 0.187500
vt 0.400000 0.625000
vt 0.400000 0.125000
vt 0.400000 0.562500
vt 0.400000 0.062500
vt 0.400000 0.500000
vt 0.425000 1.000000
vt 0.400000 0.937500
vt 0.425000 0.000000
vt 0.400000 0.437500
vt 0.350000 0.625000
vt 0.350000 0.562500
vt 0.350000 0.125000
vt 0.350000 0.062500
vt 0.350000 0.500000
vt 0.375000 1.000000
vt 0.350000 0.937500
vt 0.375000 0.000000
vt 0.350000 0.437500
vt 0.350000 0.875000
vt 0.350000 0.375000
vt 0.350000 0.812500
vt 0.350000 0.312500
vt 0.350000 0.750000
vt 0.350000 0.250000
vt 0.350000 0.687500
vt 0.350000 0.187500
vt 0.300000 0.375000
vt 0.300000 0.312500
vt 0.300000 0.812500
vt 0.300000 0.750000
vt 0.300000 0.250000
vt 0.300000 0.687500
vt 0.300000 0.187500
vt 0.300000 0.625000
vt 0.300000 0.125000
vt 0.300000 0.562500
vt 0.300000 0.062500
vt 0.300000 0.500000
vt 0.325000 1.000000
vt 0.300000 0.937500
vt 0.325000 0.000000
vt 0.300000 0.437500
vt 0.300000 0.875000
vt 0.250000 0.125000
vt 0.250000 0.062500
vt 0.250000 0.562500
vt 0.250000 0.500000
vt 0.275000 1.000000
vt 0.250000 0.937500
vt 0.275000 0.000000
vt 0.250000 0.437500
vt 0.250000 0.875000
vt 0.250000 0.375000
vt 0.250000 0.812500
vt 0.250000 0.312500
vt 0.250000 0.750000
vt 0.250000 0.250000
vt 0.250000 0.687500
vt 0.250000 0.187500
vt 0.250000 0.625000
vt 0.200000 0.312500
vt 0.200000 0.250000
vt 0.200000 0.750000
vt 0.200000 0.687500
vt 0.200000 0.187500
vt 0.200000 0.625000
vt 0.200000 0.125000
vt 0.200000 0.562500
vt 0.200000 0.062500
vt 0.200000 0.500000
vt 0.225000 1.000000
vt 0.200000 0.937500
vt 0.225000 0.000000
vt 0.200000 0.437500
vt 0.200000 0.875000
vt 0.200000 0.375000
vt 0.200000 0.812500
vt 0.175000 1.000000
vt 0.150000 0.937500
vt 0.175000 0.000000
vt 0.150000 0.062500
vt 0.150000 0.500000
vt 0.150000 0.437500
vt 0.150000 0.875000
vt 0.150000 0.375000
vt 0.150000 0.812500
vt 0.150000 0.312500
vt 0.150000 0.750000
vt 0.150000 0.250000
vt 0.150000 0.687500
vt 0.150000 0.187500
vt 0.150000 0.625000
vt 0.150000 0.125000
vt 0.150000 0.562500
vt 0.100000 0.750000
vt 0.100000 0.687500
vt 0.100000 0.250000
vt 0.100000 0.187500
vt 0.100000 0.625000
vt 0.100000 0.125000
vt 0.100000 0.562500
vt 0.100000 0.062500
vt 0.100000 0.500000
vt 0.125000 1.000000
vt 0.100000 0.937500
vt 0.125000 0.000000
vt 0.100000 0.437500
vt 0.100000 0.875000
vt 0.100000 0.375000
vt 0.100000 0.812500
vt 0.100000 0.312500
vt 0.050000 0.500000
vt 0.050000 0.437500
vt 0.050000 0.937500
vt 0.050000 0.875000
vt 0.050000 0.375000
vt 0.050000 0.812500
vt 0.050000 0.312500
vt 0.050000 0.750000
vt 0.050000 0.250000
vt 0.050000 0.687500
vt 0.050000 0.187500
vt 0.050000 0.625000
vt 0.050000 0.125000
vt 0.050000 0.562500
vt 0.050000 0.062500
vt 0.075000 1.000000
vt 0.075000 0.000000
vt 0.000000 0.250000
vt 0.000000 0.187500
vt 0.000000 0.687500
vt 0.000000 0.125000
vt 0.000000 0.562500
vt 0.000000 0.062500
vt 0.025000 1.000000
vt 0.000000 0.937500
vt 0.025000 0.000000
vt 0.000000 0.437500
vt 0.000000 0.875000
vt 0.000000 0.375000
vt 0.000000 0.812500
vt 0.000000 0.312500
vt 1.000000 0.875000
vt 1.000000 0.937500
vt 0.950000 0.937500
vt 0.950000 0.875000
vt 1.000000 0.375000
vt 1.000000 0.437500
vt 0.950000 0.437500
vt 0.950000 0.375000
vt 1.000000 0.812500
vt 0.950000 0.812500
vt 1.000000 0.312500
vt 0.950000 0.312500
vt 0.950000 0.750000
vt 1.000000 0.250000
vt 0.950000 0.250000
vt 1.000000 0.687500
vt 0.950000 0.687500
vt 1.000000 0.187500
vt 0.950000 0.187500
vt 1.000000 0.625000
vt 0.950000 0.625000
vt 1.000000 0.125000
vt 0.950000 0.125000
vt 1.000000 0.562500
vt 0.950000 0.562500
vt 1.000000 0.062500
vt 0.950000 0.062500
vt 0.950000 0.500000
vt 0.975000 1.000000
vt 0.975000 0.000000
vt 0.900000 0.687500
vt 0.900000 0.625000
vt 0.900000 0.187500
vt 0.900000 0.125000
vt 0.900000 0.562500
vt 0.900000 0.062500
vt 0.900000 0.500000
vt 0.925000 1.000000
vt 0.900000 0.937500
vt 0.925000 0.000000
vt 0.900000 0.437500
vt 0.900000 0.875000
vt 0.900000 0.375000
vt 0.900000 0.812500
vt 0.900000 0.312500
vt 0.900000 0.750000
vt 0.900000 0.250000
vt 0.850000 0.437500
vt 0.850000 0.375000
vt 0.850000 0.875000
vt 0.850000 0.812500
vt 0.850000 0.312500
vt 0.850000 0.750000
vt 0.850000 0.250000
vt 0.850000 0.687500
vt 0.850000 0.187500
vt 0.850000 0.625000
vt 0.850000 0.125000
vt 0.850000 0.562500
vt 0.850000 0.062500
vt 0.850000 0.500000
vt 0.875000 1.000000
vt 0.850000 0.937500
vt 0.875000 0.000000
vt 0.800000 0.187500
vt 0.800000 0.125000
vt 0.800000 0.625000
vt 0.800000 0.562500
vt 0.800000 0.062500
vt 0.800000 0.500000
vt 0.825000 1.000000
vt 0.800000 0.937500
vt 0.825000 0.000000
vt 0.800000 0.437500
vt 0.800000 0.875000
vt 0.800000 0.375000
vt 0.800000 0.812500
vt 0.800000 0.312500
vt 0.800000 0.750000
vt 0.800000 0.250000
vt 0.800000 0.687500
vt 0.775000 1.000000
vt 0.775000 0.000000
vt 0.000000 0.500000
s 1
usemtl Blue
f 31/1/1 2/2/1 3/3/1 30/4/1
f 40/5/1 4/6/1 5/7/1 41/8/1
f 31/1/1 32/1/1 7/2/1 2/2/1
f 40/5/1 42/5/1 8/6/1 4/6/1
f 39/1/1 33/1/1 10/2/1 27/2/1
f 94/5/1 44/9/1 14/6/1 91/6/1
f 488/1/1 35/1/1 16/2/1 485/2/1
f 489/10/1 45/9/1 17/6/1 486/6/1
f 35/1/1 50/1/1 19/2/1 16/2/1
f 45/9/1 46/5/1 51/6/1 17/6/1
f 57/1/1 52/1/1 22/2/1 54/2/1
f 58/5/1 47/9/1 53/6/1 55/6/1
f 52/1/1 38/1/1 25/2/1 22/2/1
f 47/9/1 48/5/1 26/11/1 53/6/1
f 42/5/1 49/5/1 28/6/1 8/6/1
f 32/1/1 39/1/1 27/2/1 7/2/1
f 62/12/1 69/13/1 39/1/1 32/1/1
f 67/14/1 68/14/1 38/1/1 52/1/1
f 73/15/1 72/16/1 37/17/1 60/18/1
f 65/14/1 66/19/1 50/1/1 35/1/1
f 490/14/1 65/14/1 35/1/1 488/1/1
f 95/14/1 64/13/1 34/1/1 93/1/1
f 69/13/1 63/14/1 33/1/1 39/1/1
f 61/14/1 62/12/1 32/1/1 31/1/1
f 61/14/1 31/1/1 30/4/1 70/20/1
f 6/21/1 29/21/1 49/5/1 42/5/1
f 21/21/1 24/22/1 48/5/1 47/9/1
f 56/21/1 21/21/1 47/9/1 58/5/1
f 15/21/1 18/21/1 46/5/1 45/9/1
f 487/21/1 15/21/1 45/9/1 489/10/1
f 92/21/1 12/21/1 44/9/1 94/5/1
f 1/23/1 6/21/1 42/5/1 40/5/1
f 1/23/1 40/5/1 41/8/1
f 71/24/1 66/19/1 51/6/1 20/25/1
f 72/16/1 67/14/1 52/1/1 37/17/1
f 59/26/1 55/6/1 53/6/1 23/27/1
f 60/18/1 57/1/1 50/1/1 36/28/1
f 37/17/1 52/1/1 57/1/1 60/18/1
f 20/25/1 51/6/1 55/6/1 59/26/1
f 18/21/1 56/21/1 58/5/1 46/5/1
f 71/24/1 73/15/1 60/18/1 36/28/1
f 46/5/1 58/5/1 55/6/1 51/6/1
f 50/1/1 57/1/1 54/2/1 19/2/1
f 20/25/1 59/26/1 73/15/1 71/24/1
f 23/27/1 53/6/1 67/14/1 72/16/1
f 36/28/1 50/1/1 66/19/1 71/24/1
f 4/6/1 61/14/1 70/20/1 5/7/1
f 4/6/1 8/6/1 62/12/1 61/14/1
f 28/6/1 11/6/1 63/14/1 69/13/1
f 91/6/1 14/6/1 64/13/1 95/14/1
f 486/6/1 17/6/1 65/14/1 490/14/1
f 17/6/1 51/6/1 66/19/1 65/14/1
f 59/26/1 23/27/1 72/16/1 73/15/1
f 53/6/1 26/11/1 68/14/1 67/14/1
f 8/6/1 28/6/1 69/13/1 62/12/1
f 30/4/1 77/4/1 79/20/1 70/20/1
f 41/8/1 78/8/1 74/23/1 1/23/1
f 70/20/1 79/20/1 76/7/1 5/7/1
f 3/3/1 75/3/1 77/4/1 30/4/1
f 5/7/1 76/7/1 78/8/1 41/8/1
f 82/2/1 81/2/1 80/2/1 96/2/1
f 88/2/1 84/2/1 83/2/1 87/2/1
f 27/2/1 88/2/1 87/2/1 7/2/1
f 10/2/1 90/2/1 97/2/1 86/2/1
f 86/2/1 97/2/1 96/2/1 80/2/1
f 9/21/1 92/21/1 94/5/1 43/5/1
f 98/21/1 12/21/1 92/21/1 99/21/1 89/21/1
f 103/21/1 29/21/1 6/21/1 101/21/1 102/21/1 100/21/1
f 118/1/2 117/4/3 106/3/4 105/2/5
f 126/5/6 127/8/7 108/7/8 107/6/9
f 118/1/10 105/2/10 7/2/11 119/1/12
f 126/5/6 107/6/9 109/6/13 128/5/14
f 125/1/15 27/2/16 110/2/17 120/1/18
f 134/5/19 116/6/20 111/6/21 129/5/22
f 172/1/23 90/2/24 13/2/25 121/1/26
f 173/5/27 171/6/28 112/6/29 130/9/30
f 492/1/31 485/2/32 16/29/33 122/1/34
f 493/30/35 491/6/36 113/6/37 131/9/38
f 122/1/34 16/29/33 19/2/39 135/1/40
f 131/9/38 113/6/37 136/6/41 132/5/42
f 140/1/43 54/2/44 22/29/45 137/1/46
f 141/5/47 139/6/48 138/6/49 133/9/50
f 137/1/46 22/29/45 25/2/51 38/1/51
f 133/9/50 138/6/49 26/11/52 48/5/53
f 128/5/14 109/6/13 116/6/20 134/5/19
f 119/1/12 7/2/11 27/2/16 125/1/15
f 145/12/54 119/1/55 125/1/56 151/13/57
f 150/14/58 137/1/59 38/1/59 68/14/60
f 148/14/61 122/1/62 135/1/63 149/19/64
f 494/14/65 492/1/66 122/1/62 148/14/61
f 174/14/67 172/1/68 121/1/69 147/13/70
f 151/13/57 125/1/56 120/1/71 146/14/72
f 144/14/73 118/1/2 119/1/55 145/12/54
f 144/14/73 152/20/74 117/4/3 118/1/2
f 6/21/75 128/5/76 134/5/77 29/21/78
f 21/21/79 133/9/80 48/5/81 24/22/81
f 56/21/82 141/5/83 133/9/80 21/21/79
f 15/21/84 131/9/85 132/5/86 18/21/87
f 487/21/88 493/30/89 131/9/85 15/21/84
f 92/21/90 173/5/91 130/9/92 12/21/93
f 29/21/78 134/5/77 129/5/94 9/21/95
f 1/23/96 126/5/97 128/5/76 6/21/75
f 1/23/96 104/23/98 127/8/98 126/5/97
f 153/24/99 114/25/100 136/6/41 149/19/64
f 154/16/101 124/17/102 137/1/103 150/14/58
f 142/26/104 115/27/105 138/6/49 139/6/48
f 143/18/106 123/28/107 135/1/63 140/1/108
f 124/17/102 143/18/106 140/1/108 137/1/103
f 114/25/100 142/26/104 139/6/48 136/6/41
f 18/21/87 132/5/86 141/5/83 56/21/82
f 132/5/42 136/6/41 139/6/48 141/5/47
f 135/1/40 19/2/39 54/2/44 140/1/43
f 115/27/105 154/16/101 150/14/58 138/6/49
f 123/28/107 153/24/99 149/19/64 135/1/63
f 107/6/9 108/7/8 152/20/74 144/14/73
f 107/6/9 144/14/73 145/12/54 109/6/13
f 116/6/20 151/13/57 146/14/72 111/6/21
f 171/6/28 174/14/67 147/13/70 112/6/29
f 491/6/36 494/14/65 148/14/61 113/6/37
f 113/6/37 148/14/61 149/19/64 136/6/41
f 138/6/49 150/14/58 68/14/60 26/11/52
f 109/6/13 145/12/54 151/13/57 116/6/20
f 117/4/3 152/20/74 160/20/109 158/4/110
f 127/8/7 104/23/111 155/23/111 159/8/112
f 152/20/74 108/7/8 157/7/113 160/20/109
f 106/3/4 117/4/3 158/4/110 156/3/114
f 108/7/8 127/8/7 159/8/112 157/7/113
f 111/6/21 146/14/72 174/14/67 171/6/28
f 9/21/95 129/5/94 173/5/91 92/21/90
f 146/14/72 120/1/71 172/1/68 174/14/67
f 129/5/22 111/6/21 171/6/28 173/5/27
f 120/1/18 110/2/17 90/2/24 172/1/23
f 77/4/134 75/3/135 156/3/135 158/4/134
f 78/8/136 76/7/137 157/7/137 159/8/136
f 79/20/138 77/4/134 158/4/134 160/20/138
f 27/2/139 10/2/139 110/2/139
f 74/23/140 78/8/136 159/8/136 155/23/140
f 76/7/137 79/20/138 160/20/138 157/7/137
f 1/23/141 74/23/141 155/23/141 104/23/141
f 75/3/142 3/3/142 106/3/142 156/3/142
f 3/3/155 2/2/156 105/2/157 106/3/155
f 101/21/158 6/21/158 180/21/158
f 7/2/163 87/2/163 168/2/163
f 2/2/156 7/2/164 105/2/157
f 112/381/29 147/13/70 494/14/65 491/6/36
f 12/21/93 130/10/92 493/30/89 487/21/88
f 147/13/70 121/1/69 492/1/66 494/14/65
f 130/10/30 112/381/29 491/6/36 493/30/35
f 121/1/26 13/2/25 485/2/32 492/1/31
f 14/6/1 486/6/1 490/14/1 64/14/1
f 12/21/1 487/21/1 489/10/1 44/10/1
f 64/14/1 490/14/1 488/1/1 34/1/1
f 44/10/1 489/10/1 486/6/1 14/6/1
f 34/1/1 488/1/1 485/2/1 13/2/1
f 509/1/444 496/2/445 497/3/446 508/4/447
f 517/5/448 498/6/449 499/7/450 518/8/451
f 509/1/452 510/1/453 7/2/454 496/2/452
f 517/5/448 519/5/455 500/6/456 498/6/449
f 516/1/457 511/1/458 501/2/459 27/2/460
f 525/5/461 520/5/462 502/6/463 507/6/464
f 563/1/465 512/1/466 13/2/467 90/2/468
f 564/5/469 521/9/470 503/6/471 562/6/472
f 783/1/473 513/1/474 16/29/475 485/2/476
f 784/30/477 522/9/478 504/6/479 782/6/480
f 513/1/474 526/1/481 19/2/482 16/29/475
f 522/9/478 523/5/483 527/6/484 504/6/479
f 531/1/485 528/1/486 22/29/487 54/2/488
f 532/5/489 524/9/490 529/6/491 530/6/492
f 528/1/486 38/1/493 25/2/493 22/29/487
f 524/9/490 48/5/494 26/11/495 529/6/491
f 519/5/455 525/5/461 507/6/464 500/6/456
f 510/1/453 516/1/457 27/2/460 7/2/454
f 536/12/496 542/13/497 516/1/498 510/1/499
f 541/14/500 68/14/501 38/1/502 528/1/502
f 539/14/503 540/19/504 526/1/505 513/1/506
f 785/14/507 539/14/503 513/1/506 783/1/508
f 565/14/509 538/13/510 512/1/511 563/1/512
f 542/13/497 537/14/513 511/1/514 516/1/498
f 535/14/515 536/12/496 510/1/499 509/1/444
f 535/14/515 509/1/444 508/4/447 543/20/516
f 6/21/517 29/21/518 525/5/519 519/5/520
f 21/21/521 24/22/522 48/5/522 524/9/523
f 56/21/524 21/21/521 524/9/523 532/5/525
f 15/21/526 18/21/527 523/5/528 522/9/529
f 487/21/530 15/21/526 522/9/529 784/30/531
f 92/21/532 12/21/533 521/9/534 564/5/535
f 29/21/518 9/21/536 520/5/537 525/5/519
f 1/23/538 6/21/517 519/5/520 517/5/539
f 1/23/538 517/5/539 518/8/540 495/23/540
f 544/24/541 540/19/504 527/6/484 505/25/542
f 545/16/543 541/14/500 528/1/544 515/17/545
f 533/26/546 530/6/492 529/6/491 506/27/547
f 534/18/548 531/1/549 526/1/505 514/28/550
f 515/17/545 528/1/544 531/1/549 534/18/548
f 505/25/542 527/6/484 530/6/492 533/26/546
f 18/21/527 56/21/524 532/5/525 523/5/528
f 523/5/483 532/5/489 530/6/492 527/6/484
f 526/1/481 531/1/485 54/2/488 19/2/482
f 506/27/547 529/6/491 541/14/500 545/16/543
f 514/28/550 526/1/505 540/19/504 544/24/541
f 498/6/449 535/14/515 543/20/516 499/7/450
f 498/6/449 500/6/456 536/12/496 535/14/515
f 507/6/464 502/6/463 537/14/513 542/13/497
f 562/6/472 503/6/471 538/13/510 565/14/509
f 782/6/480 504/6/479 539/14/503 785/14/507
f 504/6/479 527/6/484 540/19/504 539/14/503
f 529/6/491 26/11/495 68/14/501 541/14/500
f 500/6/456 507/6/464 542/13/497 536/12/496
f 508/4/447 549/4/551 551/20/552 543/20/516
f 518/8/451 550/8/553 546/23/554 495/23/554
f 543/20/516 551/20/552 548/7/555 499/7/450
f 497/3/446 547/3/556 549/4/551 508/4/447
f 499/7/450 548/7/555 550/8/553 518/8/451
f 502/6/463 562/6/472 565/14/509 537/14/513
f 9/21/536 92/21/532 564/5/535 520/5/537
f 537/14/513 565/14/509 563/1/512 511/1/514
f 520/5/462 564/5/469 562/6/472 502/6/463
f 511/1/458 563/1/465 90/2/468 501/2/459
f 77/4/134 549/4/134 547/3/135 75/3/135
f 78/8/136 550/8/136 548/7/137 76/7/137
f 79/20/138 551/20/138 549/4/134 77/4/134
f 27/2/139 501/2/139 10/2/139
f 74/23/140 546/23/140 550/8/136 78/8/136
f 76/7/137 548/7/137 551/20/138 79/20/138
f 1/23/141 495/23/141 546/23/141 74/23/141
f 75/3/142 547/3/142 497/3/142 3/3/142
f 3/3/155 497/3/155 496/2/157 2/2/156
f 101/21/158 571/21/158 6/21/158
f 7/2/163 559/2/163 87/2/163
f 2/2/156 496/2/157 7/2/164
f 503/381/471 782/6/480 785/14/507 538/13/510
f 12/21/533 487/21/530 784/30/531 521/10/534
f 538/13/510 785/14/507 783/1/508 512/1/511
f 521/10/470 784/30/477 782/6/480 503/381/471
f 512/1/466 783/1/473 485/2/476 13/2/467
usemtl Black
f 187/31/165 483/32/166 200/33/167 201/34/168
f 484/39/173 187/31/165 201/34/168 202/40/174
f 475/43/177 218/44/178 188/45/179
f 354/46/180 484/39/173 202/40/174
f 183/49/183 475/43/177 188/45/179 189/50/184
f 480/51/185 186/47/181 196/48/182 197/52/186
f 476/53/187 183/49/183 189/50/184 190/54/188
f 481/55/189 480/51/185 197/52/186 198/56/190
f 477/57/191 476/53/187 190/54/188 191/58/192
f 482/59/193 481/55/189 198/56/190 199/60/194
f 478/61/195 477/57/191 191/58/192 192/62/196
f 483/32/166 482/59/193 199/60/194 200/33/167
f 184/36/170 478/61/195 192/62/196 193/37/171
f 200/33/167 199/60/194 214/63/197 215/64/198
f 193/37/171 192/62/196 207/65/199 208/66/200
f 201/34/168 200/33/167 215/64/198 216/67/201
f 194/38/172 193/37/171 208/66/200 209/68/202
f 202/40/174 201/34/168 216/67/201 217/69/203
f 195/42/176 194/38/172 209/68/202 210/70/204
f 188/45/179 218/71/178 203/72/205
f 354/73/180 202/40/174 217/69/203
f 196/48/182 195/42/176 210/70/204 211/74/206
f 189/50/184 188/45/179 203/72/205 204/75/207
f 197/52/186 196/48/182 211/74/206 212/76/208
f 190/54/188 189/50/184 204/75/207 205/77/209
f 198/56/190 197/52/186 212/76/208 213/78/210
f 191/58/192 190/54/188 205/77/209 206/79/211
f 199/60/194 198/56/190 213/78/210 214/63/197
f 192/62/196 191/58/192 206/79/211 207/65/199
f 204/75/207 203/72/205 219/80/212 220/81/213
f 212/76/208 211/74/206 227/82/214 228/83/215
f 205/77/209 204/75/207 220/81/213 221/84/216
f 213/78/210 212/76/208 228/83/215 229/85/217
f 206/79/211 205/77/209 221/84/216 222/86/218
f 214/63/197 213/78/210 229/85/217 230/87/219
f 207/65/199 206/79/211 222/86/218 223/88/220
f 215/64/198 214/63/197 230/87/219 231/89/221
f 208/66/200 207/65/199 223/88/220 224/90/222
f 216/67/201 215/64/198 231/89/221 232/91/223
f 209/68/202 208/66/200 224/90/222 225/92/224
f 217/69/203 216/67/201 232/91/223 233/93/225
f 210/70/204 209/68/202 225/92/224 226/94/226
f 203/72/205 218/95/178 219/80/212
f 354/96/180 217/69/203 233/93/225
f 211/74/206 210/70/204 226/94/226 227/82/214
f 224/90/222 223/88/220 238/97/227 239/98/228
f 232/91/223 231/89/221 246/99/229 247/100/230
f 225/92/224 224/90/222 239/98/228 240/101/231
f 233/93/225 232/91/223 247/100/230 248/102/232
f 226/94/226 225/92/224 240/101/231 241/103/233
f 219/80/212 218/104/178 234/105/234
f 354/106/180 233/93/225 248/102/232
f 227/82/214 226/94/226 241/103/233 242/107/235
f 220/81/213 219/80/212 234/105/234 235/108/236
f 228/83/215 227/82/214 242/107/235 243/109/237
f 221/84/216 220/81/213 235/108/236 236/110/238
f 229/85/217 228/83/215 243/109/237 244/111/239
f 222/86/218 221/84/216 236/110/238 237/112/240
f 230/87/219 229/85/217 244/111/239 245/113/241
f 223/88/220 222/86/218 237/112/240 238/97/227
f 231/89/221 230/87/219 245/113/241 246/99/229
f 243/109/237 242/107/235 257/114/242 258/115/243
f 236/110/238 235/108/236 250/116/244 251/117/245
f 244/111/239 243/109/237 258/115/243 259/118/246
f 237/112/240 236/110/238 251/117/245 252/119/247
f 245/113/241 244/111/239 259/118/246 260/120/248
f 238/97/227 237/112/240 252/119/247 253/121/249
f 246/99/229 245/113/241 260/120/248 261/122/250
f 239/98/228 238/97/227 253/121/249 254/123/251
f 247/100/230 246/99/229 261/122/250 262/124/252
f 240/101/231 239/98/228 254/123/251 255/125/253
f 248/102/232 247/100/230 262/124/252 263/126/254
f 241/103/233 240/101/231 255/125/253 256/127/255
f 234/105/234 218/128/178 249/129/256
f 354/130/180 248/102/232 263/126/254
f 242/107/235 241/103/233 256/127/255 257/114/242
f 235/108/236 234/105/234 249/129/256 250/116/244
f 262/124/121 261/122/121 276/131/121 277/132/121
f 255/125/121 254/123/121 269/133/121 270/134/121
f 263/126/121 262/124/121 277/132/121 278/135/121
f 256/127/121 255/125/121 270/134/121 271/136/121
f 249/129/121 218/137/121 264/138/121
f 354/139/121 263/126/121 278/135/121
f 257/114/121 256/127/121 271/136/121 272/140/121
f 250/116/121 249/129/121 264/138/121 265/141/121
f 258/115/121 257/114/121 272/140/121 273/142/121
f 251/117/121 250/116/121 265/141/121 266/143/121
f 259/118/121 258/115/121 273/142/121 274/144/121
f 252/119/121 251/117/121 266/143/121 267/145/121
f 260/120/121 259/118/121 274/144/121 275/146/121
f 253/121/121 252/119/121 267/145/121 268/147/121
f 261/122/121 260/120/121 275/146/121 276/131/121
f 254/123/121 253/121/121 268/147/121 269/133/121
f 266/143/121 265/141/121 280/148/121 281/149/121
f 274/144/257 273/142/258 288/150/259 289/151/260
f 267/145/261 266/143/262 281/149/263 282/152/264
f 275/146/265 274/144/257 289/151/260 290/153/266
f 268/147/267 267/145/261 282/152/264 283/154/268
f 276/131/269 275/146/265 290/153/266 291/155/270
f 269/133/271 268/147/267 283/154/268 284/156/272
f 277/132/121 276/131/121 291/155/121 292/157/121
f 270/134/273 269/133/271 284/156/272 285/158/274
f 278/135/121 277/132/121 292/157/121 293/159/121
f 271/136/275 270/134/273 285/158/274 286/160/276
f 264/138/121 218/161/121 279/162/121
f 354/163/121 278/135/121 293/159/121
f 272/140/277 271/136/275 286/160/276 287/164/278
f 265/141/121 264/138/121 279/162/121 280/148/121
f 273/142/258 272/140/277 287/164/278 288/150/259
f 285/158/274 284/156/272 299/165/279 300/166/280
f 293/159/121 292/157/121 307/167/121 308/168/121
f 286/160/276 285/158/274 300/166/280 301/169/281
f 279/162/121 218/170/121 294/171/121
f 354/172/121 293/159/121 308/168/121
f 287/164/278 286/160/276 301/169/281 302/173/282
f 280/148/121 279/162/121 294/171/121 295/174/121
f 288/150/259 287/164/278 302/173/282 303/175/283
f 281/149/263 280/148/284 295/174/285 296/176/286
f 289/151/260 288/150/259 303/175/283 304/177/287
f 282/152/264 281/149/263 296/176/286 297/178/288
f 290/153/266 289/151/260 304/177/287 305/179/289
f 283/154/268 282/152/264 297/178/288 298/180/290
f 291/155/270 290/153/266 305/179/289 306/181/291
f 284/156/272 283/154/268 298/180/290 299/165/279
f 292/157/292 291/155/270 306/181/291 307/167/293
f 304/177/287 303/175/283 318/182/294 319/183/295
f 297/178/288 296/176/286 311/184/296 312/185/297
f 305/179/289 304/177/287 319/183/295 320/186/298
f 298/180/290 297/178/288 312/185/297 313/187/299
f 306/181/291 305/179/289 320/186/298 321/188/300
f 299/165/279 298/180/290 313/187/299 314/189/301
f 307/167/293 306/181/291 321/188/300 322/190/302
f 300/166/280 299/165/279 314/189/301 315/191/303
f 308/168/121 307/167/121 322/190/121 323/192/121
f 301/169/281 300/166/280 315/191/303 316/193/304
f 294/171/121 218/194/121 309/195/121
f 354/196/121 308/168/121 323/192/121
f 302/173/282 301/169/281 316/193/304 317/197/305
f 295/174/121 294/171/121 309/195/121 310/198/121
f 303/175/283 302/173/282 317/197/305 318/182/294
f 296/176/286 295/174/285 310/198/306 311/184/296
f 323/192/121 322/190/121 337/199/121 338/200/121
f 316/193/304 315/191/303 330/201/307 331/202/121
f 309/195/121 218/203/121 324/204/121
f 354/205/121 323/192/121 338/200/121
f 317/197/305 316/193/304 331/202/121 332/206/308
f 310/198/121 309/195/121 324/204/121 325/207/121
f 318/182/294 317/197/305 332/206/308 333/208/309
f 311/184/296 310/198/306 325/207/310 326/209/311
f 319/183/295 318/182/294 333/208/309 334/210/312
f 312/185/297 311/184/296 326/209/311 327/211/313
f 320/186/298 319/183/295 334/210/312 335/212/314
f 313/187/299 312/185/297 327/211/313 328/213/315
f 321/188/300 320/186/298 335/212/314 336/214/316
f 314/189/301 313/187/299 328/213/315 329/215/317
f 322/190/302 321/188/300 336/214/316 337/199/318
f 315/191/303 314/189/301 329/215/317 330/201/307
f 335/212/314 334/210/312 349/216/319 350/217/320
f 328/213/315 327/211/313 342/218/321 343/219/322
f 336/214/316 335/212/314 350/217/320 351/220/323
f 329/215/317 328/213/315 343/219/322 344/221/324
f 337/199/318 336/214/316 351/220/323 352/222/325
f 330/201/307 329/215/317 344/221/324 345/223/326
f 338/200/121 337/199/121 352/222/121 353/224/121
f 331/202/121 330/201/307 345/223/326 346/225/327
f 324/204/121 218/226/121 339/227/121
f 354/228/121 338/200/121 353/224/121
f 332/206/308 331/202/121 346/225/327 347/229/328
f 325/207/121 324/204/121 339/227/121 340/230/121
f 333/208/309 332/206/308 347/229/328 348/231/329
f 326/209/311 325/207/310 340/230/330 341/232/331
f 334/210/312 333/208/309 348/231/329 349/216/319
f 327/211/313 326/209/311 341/232/331 342/218/321
f 339/227/121 218/233/121 355/234/121
f 354/235/121 353/224/121 369/236/121
f 347/229/328 346/225/327 362/237/332 363/238/333
f 340/230/121 339/227/121 355/234/121 356/239/121
f 348/231/329 347/229/328 363/238/333 364/240/334
f 341/232/331 340/230/330 356/239/335 357/241/336
f 349/216/319 348/231/329 364/240/334 365/242/337
f 342/218/321 341/232/331 357/241/336 358/243/338
f 350/217/320 349/216/319 365/242/337 366/244/339
f 343/219/322 342/218/321 358/243/338 359/245/340
f 351/220/323 350/217/320 366/244/339 367/246/341
f 344/221/324 343/219/322 359/245/340 360/247/342
f 352/222/325 351/220/323 367/246/341 368/248/343
f 345/223/326 344/221/324 360/247/342 361/249/344
f 353/224/121 352/222/121 368/248/121 369/236/121
f 346/225/327 345/223/326 361/249/344 362/237/332
f 359/245/340 358/243/338 373/250/345 374/251/346
f 367/246/341 366/244/339 381/252/347 382/253/348
f 360/247/342 359/245/340 374/251/346 375/254/349
f 368/248/343 367/246/341 382/253/348 383/255/350
f 361/249/344 360/247/342 375/254/349 376/256/351
f 369/236/121 368/248/121 383/255/121 384/257/121
f 362/237/332 361/249/344 376/256/351 377/258/352
f 355/234/121 218/259/121 370/260/121
f 354/261/121 369/236/121 384/257/121
f 363/238/333 362/237/332 377/258/352 378/262/353
f 356/239/121 355/234/121 370/260/121 371/263/121
f 364/240/334 363/238/333 378/262/353 379/264/354
f 357/241/336 356/239/335 371/263/355 372/265/356
f 365/242/337 364/240/334 379/264/354 380/266/357
f 358/243/338 357/241/336 372/265/356 373/250/345
f 366/244/339 365/242/337 380/266/357 381/252/347
f 378/262/353 377/258/352 392/267/358 393/268/359
f 371/263/121 370/260/121 385/269/121 386/270/121
f 379/264/354 378/262/353 393/268/359 394/271/360
f 372/265/121 371/263/121 386/270/121 387/272/121
f 380/266/357 379/264/354 394/271/360 395/273/361
f 373/250/345 372/265/356 387/272/362 388/274/363
f 381/252/347 380/266/357 395/273/361 396/275/364
f 374/251/346 373/250/345 388/274/363 389/276/365
f 382/253/348 381/252/347 396/275/364 397/277/366
f 375/254/349 374/251/346 389/276/365 390/278/367
f 383/255/121 382/253/121 397/277/121 398/279/121
f 376/256/351 375/254/349 390/278/367 391/280/368
f 384/257/121 383/255/121 398/279/121 399/281/121
f 377/258/352 376/256/351 391/280/368 392/267/358
f 370/260/121 218/282/121 385/269/121
f 354/283/121 384/257/121 399/281/121
f 397/277/121 396/275/121 411/284/121 412/285/121
f 390/278/121 389/276/121 404/286/121 405/14/121
f 398/279/121 397/277/121 412/285/121 413/287/121
f 391/280/121 390/278/121 405/14/121 406/288/121
f 399/281/121 398/279/121 413/287/121 414/289/121
f 392/267/121 391/280/121 406/288/121 407/6/121
f 385/269/121 218/290/121 400/291/121
f 354/292/121 399/281/121 414/289/121
f 393/268/121 392/267/121 407/6/121 408/293/121
f 386/270/121 385/269/121 400/291/121 401/294/121
f 394/271/121 393/268/121 408/293/121 409/295/121
f 387/272/121 386/270/121 401/294/121 402/296/121
f 395/273/121 394/271/121 409/295/121 410/297/121
f 388/274/121 387/272/121 402/296/121 403/1/121
f 396/275/121 395/273/121 410/297/121 411/284/121
f 389/276/121 388/274/121 403/1/121 404/286/121
f 401/298/369 400/299/370 415/300/371 416/301/372
f 409/302/373 408/303/374 423/304/375 424/305/376
f 402/306/377 401/298/369 416/301/372 417/307/378
f 410/308/379 409/302/373 424/305/376 425/309/380
f 403/4/381 402/306/377 417/307/378 418/310/382
f 411/311/383 410/308/379 425/309/380 426/312/384
f 404/313/385 403/4/381 418/310/382 419/314/386
f 412/315/387 411/311/383 426/312/384 427/316/388
f 405/317/389 404/313/385 419/314/386 420/318/390
f 413/319/391 412/315/387 427/316/388 428/320/392
f 406/321/393 405/317/389 420/318/390 421/322/394
f 414/323/395 413/319/391 428/320/392 429/324/396
f 407/7/397 406/321/393 421/322/394 422/325/398
f 400/299/370 218/326/178 415/300/371
f 354/327/180 414/323/395 429/324/396
f 408/303/374 407/7/397 422/325/398 423/304/375
f 420/318/390 419/314/386 434/328/399 435/329/400
f 428/320/392 427/316/388 442/330/401 443/331/402
f 421/322/394 420/318/390 435/329/400 436/332/403
f 429/324/396 428/320/392 443/331/402 444/333/404
f 422/325/398 421/322/394 436/332/403 437/334/405
f 415/300/371 218/335/178 430/336/406
f 354/337/180 429/324/396 444/333/404
f 423/304/375 422/325/398 437/334/405 438/338/407
f 416/301/372 415/300/371 430/336/406 431/339/408
f 424/305/376 423/304/375 438/338/407 439/340/409
f 417/307/378 416/301/372 431/339/408 432/341/410
f 425/309/380 424/305/376 439/340/409 440/342/411
f 418/310/382 417/307/378 432/341/410 433/343/412
f 426/312/384 425/309/380 440/342/411 441/344/413
f 419/314/386 418/310/382 433/343/412 434/328/399
f 427/316/388 426/312/384 441/344/413 442/330/401
f 439/340/409 438/338/407 453/345/414 454/346/415
f 432/341/410 431/339/408 446/347/416 447/348/417
f 440/342/411 439/340/409 454/346/415 455/349/418
f 433/343/412 432/341/410 447/348/417 448/350/419
f 441/344/413 440/342/411 455/349/418 456/351/420
f 434/328/399 433/343/412 448/350/419 449/352/421
f 442/330/401 441/344/413 456/351/420 457/353/422
f 435/329/400 434/328/399 449/352/421 450/354/423
f 443/331/402 442/330/401 457/353/422 458/355/424
f 436/332/403 435/329/400 450/354/423 451/356/425
f 444/333/404 443/331/402 458/355/424 459/357/426
f 437/334/405 436/332/403 451/356/425 452/358/427
f 430/336/406 218/359/178 445/360/428
f 354/361/180 444/333/404 459/357/426
f 438/338/407 437/334/405 452/358/427 453/345/414
f 431/339/408 430/336/406 445/360/428 446/347/416
f 458/355/424 457/353/422 472/362/429 473/363/430
f 451/356/425 450/354/423 465/364/431 466/365/432
f 459/357/426 458/355/424 473/363/430 474/366/433
f 452/358/427 451/356/425 466/365/432 467/367/434
f 445/360/428 218/368/178 460/369/435
f 354/370/180 459/357/426 474/366/433
f 453/345/414 452/358/427 467/367/434 468/371/436
f 446/347/416 445/360/428 460/369/435 461/372/437
f 454/346/415 453/345/414 468/371/436 469/373/438
f 447/348/417 446/347/416 461/372/437 462/374/439
f 455/349/418 454/346/415 469/373/438 470/375/440
f 448/350/419 447/348/417 462/374/439 463/376/441
f 456/351/420 455/349/418 470/375/440 471/377/442
f 449/352/421 448/350/419 463/376/441 464/378/443
f 457/353/422 456/351/420 471/377/442 472/362/429
f 450/354/423 449/352/421 464/378/443 465/364/431
f 470/375/440 469/373/438 480/51/185 481/55/189
f 463/376/441 462/374/439 476/53/187 477/57/191
f 471/377/442 470/375/440 481/55/189 482/59/193
f 464/378/443 463/376/441 477/57/191 478/61/195
f 472/362/429 471/377/442 482/59/193 483/32/166
f 465/364/431 464/378/443 478/61/195 184/36/170
f 473/363/430 472/362/429 483/32/166 187/31/165
f 474/366/433 473/363/430 187/31/165 484/39/173
f 460/369/435 218/379/178 475/43/177
f 354/380/180 474/366/433 484/39/173
f 461/372/437 460/369/435 475/43/177 183/49/183
f 469/373/438 468/371/436 186/47/181 480/51/185
f 462/374/439 461/372/437 183/49/183 476/53/187
f 578/31/572 592/34/573 591/33/574 780/32/575
f 781/39/580 593/40/581 592/34/573 578/31/572
f 772/43/584 579/45/585 218/44/586
f 354/46/587 593/40/581 781/39/580
f 574/49/590 580/50/591 579/45/585 772/43/584
f 777/51/592 588/52/593 587/48/589 577/47/588
f 773/53/594 581/54/595 580/50/591 574/49/590
f 778/55/312 589/56/295 588/52/593 777/51/592
f 774/57/313 582/58/297 581/54/595 773/53/594
f 779/59/314 590/60/298 589/56/295 778/55/312
f 775/61/596 583/62/597 582/58/297 774/57/313
f 780/32/575 591/33/574 590/60/298 779/59/314
f 575/36/579 584/37/578 583/62/597 775/61/596
f 591/33/574 606/64/598 605/63/599 590/60/298
f 584/37/578 599/66/600 598/65/601 583/62/597
f 592/34/573 607/67/602 606/64/598 591/33/574
f 585/38/577 600/68/603 599/66/600 584/37/578
f 593/40/581 608/69/604 607/67/602 592/34/573
f 586/42/583 601/70/605 600/68/603 585/38/577
f 579/45/585 594/72/606 218/71/586
f 354/73/587 608/69/604 593/40/581
f 587/48/589 602/74/607 601/70/605 586/42/583
f 580/50/591 595/75/608 594/72/606 579/45/585
f 588/52/593 603/76/609 602/74/607 587/48/589
f 581/54/595 596/77/610 595/75/608 580/50/591
f 589/56/295 604/78/287 603/76/609 588/52/593
f 582/58/297 597/79/611 596/77/610 581/54/595
f 590/60/298 605/63/599 604/78/287 589/56/295
f 583/62/597 598/65/601 597/79/611 582/58/297
f 595/75/608 610/81/612 609/80/613 594/72/606
f 603/76/609 618/83/614 617/82/615 602/74/607
f 596/77/610 611/84/616 610/81/612 595/75/608
f 604/78/287 619/85/617 618/83/614 603/76/609
f 597/79/611 612/86/618 611/84/616 596/77/610
f 605/63/599 620/87/619 619/85/617 604/78/287
f 598/65/601 613/88/620 612/86/618 597/79/611
f 606/64/598 621/89/621 620/87/619 605/63/599
f 599/66/600 614/90/622 613/88/620 598/65/601
f 607/67/602 622/91/623 621/89/621 606/64/598
f 600/68/603 615/92/624 614/90/622 599/66/600
f 608/69/604 623/93/625 622/91/623 607/67/602
f 601/70/605 616/94/626 615/92/624 600/68/603
f 594/72/606 609/80/613 218/95/586
f 354/96/587 623/93/625 608/69/604
f 602/74/607 617/82/615 616/94/626 601/70/605
f 614/90/622 629/98/627 628/97/628 613/88/620
f 622/91/623 637/100/629 636/99/630 621/89/621
f 615/92/624 630/101/631 629/98/627 614/90/622
f 623/93/625 638/102/632 637/100/629 622/91/623
f 616/94/626 631/103/633 630/101/631 615/92/624
f 609/80/613 624/105/634 218/104/586
f 354/106/587 638/102/632 623/93/625
f 617/82/615 632/107/635 631/103/633 616/94/626
f 610/81/612 625/108/636 624/105/634 609/80/613
f 618/83/614 633/109/637 632/107/635 617/82/615
f 611/84/616 626/110/638 625/108/636 610/81/612
f 619/85/617 634/111/639 633/109/637 618/83/614
f 612/86/618 627/112/640 626/110/638 611/84/616
f 620/87/619 635/113/641 634/111/639 619/85/617
f 613/88/620 628/97/628 627/112/640 612/86/618
f 621/89/621 636/99/630 635/113/641 620/87/619
f 633/109/637 258/115/642 257/114/643 632/107/635
f 626/110/638 251/117/644 250/116/645 625/108/636
f 634/111/639 259/118/646 258/115/642 633/109/637
f 627/112/640 252/119/647 251/117/644 626/110/638
f 635/113/641 260/120/648 259/118/646 634/111/639
f 628/97/628 253/121/649 252/119/647 627/112/640
f 636/99/630 261/122/650 260/120/648 635/113/641
f 629/98/627 254/123/651 253/121/649 628/97/628
f 637/100/629 262/124/652 261/122/650 636/99/630
f 630/101/631 255/125/653 254/123/651 629/98/627
f 638/102/632 263/126/654 262/124/652 637/100/629
f 631/103/633 256/127/655 255/125/653 630/101/631
f 624/105/634 249/129/656 218/128/586
f 354/130/587 263/126/654 638/102/632
f 632/107/635 257/114/643 256/127/655 631/103/633
f 625/108/636 250/116/645 249/129/656 624/105/634
f 274/144/657 646/151/658 645/150/659 273/142/660
f 267/145/661 639/152/662 281/149/663 266/143/664
f 275/146/665 647/153/666 646/151/658 274/144/657
f 268/147/667 640/154/668 639/152/662 267/145/661
f 276/131/669 291/155/670 647/153/666 275/146/665
f 269/133/671 641/156/672 640/154/668 268/147/667
f 270/134/673 642/158/674 641/156/672 269/133/671
f 271/136/675 643/160/676 642/158/674 270/134/673
f 272/140/677 644/164/678 643/160/676 271/136/675
f 273/142/660 645/150/659 644/164/678 272/140/677
f 642/158/674 652/166/679 651/165/680 641/156/672
f 643/160/676 653/169/681 652/166/679 642/158/674
f 644/164/678 654/173/682 653/169/681 643/160/676
f 645/150/659 655/175/683 654/173/682 644/164/678
f 281/149/663 648/176/684 295/174/685 280/148/686
f 646/151/658 656/177/210 655/175/683 645/150/659
f 639/152/662 649/178/687 648/176/684 281/149/663
f 647/153/666 657/179/688 656/177/210 646/151/658
f 640/154/668 650/180/689 649/178/687 639/152/662
f 291/155/670 658/181/690 657/179/688 647/153/666
f 641/156/672 651/165/680 650/180/689 640/154/668
f 292/157/691 307/167/692 658/181/690 291/155/670
f 656/177/210 667/183/190 666/182/693 655/175/683
f 649/178/687 660/185/192 659/184/694 648/176/684
f 657/179/688 668/186/194 667/183/190 656/177/210
f 650/180/689 661/187/695 660/185/192 649/178/687
f 658/181/690 669/188/696 668/186/194 657/179/688
f 651/165/680 662/189/697 661/187/695 650/180/689
f 307/167/692 322/190/698 669/188/696 658/181/690
f 652/166/679 663/191/699 662/189/697 651/165/680
f 653/169/681 664/193/700 663/191/699 652/166/679
f 654/173/682 665/197/701 664/193/700 653/169/681
f 655/175/683 666/182/693 665/197/701 654/173/682
f 648/176/684 659/184/694 310/198/702 295/174/685
f 664/193/700 675/202/1 674/201/703 663/191/699
f 665/197/701 676/206/704 675/202/1 664/193/700
f 666/182/693 677/208/705 676/206/704 665/197/701
f 659/184/694 670/209/706 325/207/707 310/198/702
f 667/183/190 678/210/189 677/208/705 666/182/693
f 660/185/192 671/211/191 670/209/706 659/184/694
f 668/186/194 679/212/193 678/210/189 667/183/190
f 661/187/695 672/213/708 671/211/191 660/185/192
f 669/188/696 680/214/709 679/212/193 668/186/194
f 662/189/697 673/215/710 672/213/708 661/187/695
f 322/190/698 337/199/711 680/214/709 669/188/696
f 663/191/699 674/201/703 673/215/710 662/189/697
f 679/212/193 690/217/442 689/216/440 678/210/189
f 672/213/708 683/219/712 682/218/441 671/211/191
f 680/214/709 691/220/713 690/217/442 679/212/193
f 673/215/710 684/221/714 683/219/712 672/213/708
f 337/199/711 352/222/715 691/220/713 680/214/709
f 674/201/703 685/223/716 684/221/714 673/215/710
f 675/202/1 686/225/717 685/223/716 674/201/703
f 676/206/704 687/229/718 686/225/717 675/202/1
f 677/208/705 688/231/719 687/229/718 676/206/704
f 670/209/706 681/232/720 340/230/721 325/207/707
f 678/210/189 689/216/440 688/231/719 677/208/705
f 671/211/191 682/218/441 681/232/720 670/209/706
f 687/229/718 698/238/722 697/237/723 686/225/717
f 688/231/719 699/240/724 698/238/722 687/229/718
f 681/232/720 692/241/725 356/239/726 340/230/721
f 689/216/440 700/242/418 699/240/724 688/231/719
f 682/218/441 693/243/727 692/241/725 681/232/720
f 690/217/442 701/244/728 700/242/418 689/216/440
f 683/219/712 694/245/729 693/243/727 682/218/441
f 691/220/713 702/246/730 701/244/728 690/217/442
f 684/221/714 695/247/731 694/245/729 683/219/712
f 352/222/715 368/248/732 702/246/730 691/220/713
f 685/223/716 696/249/733 695/247/731 684/221/714
f 686/225/717 697/237/723 696/249/733 685/223/716
f 694/245/729 704/251/734 703/250/735 693/243/727
f 702/246/730 382/253/736 711/252/737 701/244/728
f 695/247/731 705/254/738 704/251/734 694/245/729
f 368/248/732 383/255/739 382/253/736 702/246/730
f 696/249/733 706/256/740 705/254/738 695/247/731
f 697/237/723 707/258/741 706/256/740 696/249/733
f 698/238/722 708/262/742 707/258/741 697/237/723
f 699/240/724 709/264/743 708/262/742 698/238/722
f 692/241/725 372/265/744 371/263/745 356/239/726
f 700/242/418 710/266/746 709/264/743 699/240/724
f 693/243/727 703/250/735 372/265/744 692/241/725
f 701/244/728 711/252/737 710/266/746 700/242/418
f 708/262/742 393/268/747 392/267/748 707/258/741
f 709/264/743 394/271/749 393/268/747 708/262/742
f 710/266/746 395/273/750 394/271/749 709/264/743
f 703/250/735 388/274/751 387/272/752 372/265/744
f 711/252/737 396/275/753 395/273/750 710/266/746
f 704/251/734 389/276/754 388/274/751 703/250/735
f 382/253/736 397/277/755 396/275/753 711/252/737
f 705/254/738 390/278/756 389/276/754 704/251/734
f 706/256/740 391/280/757 390/278/756 705/254/738
f 707/258/741 392/267/748 391/280/757 706/256/740
f 401/298/758 713/301/759 712/300/760 400/299/761
f 409/302/762 721/305/763 720/304/764 408/303/765
f 402/306/766 714/307/767 713/301/759 401/298/758
f 410/308/768 722/309/769 721/305/763 409/302/762
f 403/4/770 715/310/771 714/307/767 402/306/766
f 411/311/772 723/312/773 722/309/769 410/308/768
f 404/313/774 716/314/775 715/310/771 403/4/770
f 412/315/776 724/316/777 723/312/773 411/311/772
f 405/317/778 717/318/779 716/314/775 404/313/774
f 413/319/780 725/320/781 724/316/777 412/315/776
f 406/321/782 718/322/783 717/318/779 405/317/778
f 414/323/784 726/324/785 725/320/781 413/319/780
f 407/7/786 719/325/787 718/322/783 406/321/782
f 400/299/761 712/300/760 218/326/586
f 354/327/587 726/324/785 414/323/784
f 408/303/765 720/304/764 719/325/787 407/7/786
f 717/318/779 732/329/788 731/328/789 716/314/775
f 725/320/781 740/331/790 739/330/791 724/316/777
f 718/322/783 733/332/792 732/329/788 717/318/779
f 726/324/785 741/333/793 740/331/790 725/320/781
f 719/325/787 734/334/794 733/332/792 718/322/783
f 712/300/760 727/336/795 218/335/586
f 354/337/587 741/333/793 726/324/785
f 720/304/764 735/338/796 734/334/794 719/325/787
f 713/301/759 728/339/797 727/336/795 712/300/760
f 721/305/763 736/340/798 735/338/796 720/304/764
f 714/307/767 729/341/799 728/339/797 713/301/759
f 722/309/769 737/342/800 736/340/798 721/305/763
f 715/310/771 730/343/801 729/341/799 714/307/767
f 723/312/773 738/344/802 737/342/800 722/309/769
f 716/314/775 731/328/789 730/343/801 715/310/771
f 724/316/777 739/330/791 738/344/802 723/312/773
f 736/340/798 751/346/803 750/345/804 735/338/796
f 729/341/799 744/348/805 743/347/806 728/339/797
f 737/342/800 752/349/337 751/346/803 736/340/798
f 730/343/801 745/350/807 744/348/805 729/341/799
f 738/344/802 753/351/808 752/349/337 737/342/800
f 731/328/789 746/352/809 745/350/807 730/343/801
f 739/330/791 754/353/810 753/351/808 738/344/802
f 732/329/788 747/354/811 746/352/809 731/328/789
f 740/331/790 755/355/812 754/353/810 739/330/791
f 733/332/792 748/356/813 747/354/811 732/329/788
f 741/333/793 756/357/814 755/355/812 740/331/790
f 734/334/794 749/358/815 748/356/813 733/332/792
f 727/336/795 742/360/816 218/359/586
f 354/361/587 756/357/814 741/333/793
f 735/338/796 750/345/804 749/358/815 734/334/794
f 728/339/797 743/347/806 742/360/816 727/336/795
f 755/355/812 770/363/817 769/362/818 754/353/810
f 748/356/813 763/365/819 762/364/820 747/354/811
f 756/357/814 771/366/821 770/363/817 755/355/812
f 749/358/815 764/367/822 763/365/819 748/356/813
f 742/360/816 757/369/823 218/368/586
f 354/370/587 771/366/821 756/357/814
f 750/345/804 765/371/824 764/367/822 749/358/815
f 743/347/806 758/372/825 757/369/823 742/360/816
f 751/346/803 766/373/826 765/371/824 750/345/804
f 744/348/805 759/374/827 758/372/825 743/347/806
f 752/349/337 767/375/319 766/373/826 751/346/803
f 745/350/807 760/376/321 759/374/827 744/348/805
f 753/351/808 768/377/320 767/375/319 752/349/337
f 746/352/809 761/378/828 760/376/321 745/350/807
f 754/353/810 769/362/818 768/377/320 753/351/808
f 747/354/811 762/364/820 761/378/828 746/352/809
f 767/375/319 778/55/312 777/51/592 766/373/826
f 760/376/321 774/57/313 773/53/594 759/374/827
f 768/377/320 779/59/314 778/55/312 767/375/319
f 761/378/828 775/61/596 774/57/313 760/376/321
f 769/362/818 780/32/575 779/59/314 768/377/320
f 762/364/820 575/36/579 775/61/596 761/378/828
f 770/363/817 578/31/572 780/32/575 769/362/818
f 771/366/821 781/39/580 578/31/572 770/363/817
f 757/369/823 772/43/584 218/379/586
f 354/380/587 781/39/580 771/366/821
f 758/372/825 574/49/590 772/43/584 757/369/823
f 766/373/826 777/51/592 577/47/588 765/371/824
f 759/374/827 773/53/594 574/49/590 758/372/825
usemtl yellow
f 49/5/1 43/5/1 11/6/1 28/6/1
f 93/1/1 34/1/1 13/2/1 90/2/1
f 29/21/1 9/21/1 43/5/1 49/5/1
f 97/2/1 85/2/1 82/2/1 96/2/1
f 90/2/1 13/2/1 85/2/1 97/2/1
f 11/6/1 91/6/1 95/14/1 63/14/1
f 63/14/1 95/14/1 93/1/1 33/1/1
f 43/5/1 94/5/1 91/6/1 11/6/1
f 33/1/1 93/1/1 90/2/1 10/2/1
f 163/2/115 175/2/116 161/2/117 162/2/118
f 169/2/119 168/2/120 164/2/121 165/2/121
f 176/2/122 175/2/116 163/2/115 166/2/123
f 90/2/124 176/2/122 166/2/123 13/2/125
f 27/2/126 7/2/126 168/2/120 169/2/119
f 110/2/127 167/2/128 176/2/122 90/2/124
f 167/2/128 161/2/117 175/2/116 176/2/122
f 177/21/129 170/21/129 178/21/129 92/21/129 12/21/129
f 182/21/130 179/21/130 181/21/130 180/21/130 6/21/130 29/21/130
f 98/21/131 89/21/132 170/21/132 177/21/133
f 80/2/143 81/2/143 162/2/143 161/2/143
f 85/2/144 13/2/144 166/2/144
f 81/2/145 82/2/146 163/2/146 162/2/145
f 83/2/147 84/2/147 165/2/147 164/2/147
f 12/21/148 98/21/131 177/21/133
f 87/2/149 83/2/149 164/2/149 168/2/149
f 89/21/150 99/21/150 178/21/150 170/21/150
f 88/2/151 27/2/151 169/2/151
f 99/21/152 92/21/152 178/21/152
f 86/2/153 80/2/153 161/2/153 167/2/153
f 103/21/154 100/21/154 179/21/154 182/21/154
f 82/2/146 85/2/144 166/2/144 163/2/146
f 100/21/159 102/21/159 181/21/159 179/21/159
f 10/2/160 86/2/160 167/2/160 110/2/160
f 102/21/161 101/21/161 180/21/161 181/21/161
f 29/21/162 103/21/162 182/21/162
f 84/2/151 88/2/151 169/2/151 165/2/151
f 554/2/557 553/2/558 552/2/559 566/2/560
f 560/2/561 556/2/1 555/2/1 559/2/562
f 567/2/563 557/2/564 554/2/557 566/2/560
f 90/2/565 13/2/566 557/2/564 567/2/563
f 27/2/567 560/2/561 559/2/562 7/2/567
f 501/2/568 90/2/565 567/2/563 558/2/569
f 558/2/569 567/2/563 566/2/560 552/2/559
f 568/21/570 12/21/570 92/21/570 569/21/570 561/21/570
f 573/21/571 29/21/571 6/21/571 571/21/571 572/21/571 570/21/571
f 98/21/131 568/21/133 561/21/132 89/21/132
f 80/2/143 552/2/143 553/2/143 81/2/143
f 85/2/144 557/2/144 13/2/144
f 81/2/145 553/2/145 554/2/146 82/2/146
f 83/2/147 555/2/147 556/2/147 84/2/147
f 12/21/148 568/21/133 98/21/131
f 87/2/149 559/2/149 555/2/149 83/2/149
f 89/21/150 561/21/150 569/21/150 99/21/150
f 88/2/151 560/2/151 27/2/151
f 99/21/152 569/21/152 92/21/152
f 86/2/153 558/2/153 552/2/153 80/2/153
f 103/21/154 573/21/154 570/21/154 100/21/154
f 82/2/146 554/2/146 557/2/144 85/2/144
f 100/21/159 570/21/159 572/21/159 102/21/159
f 10/2/160 501/2/160 558/2/160 86/2/160
f 102/21/161 572/21/161 571/21/161 101/21/161
f 29/21/162 573/21/162 103/21/162
f 84/2/151 556/2/151 560/2/151 88/2/151
usemtl yellow2
f 185/35/169 184/36/170 193/37/171 194/38/172
f 479/41/175 185/35/169 194/38/172 195/42/176
f 186/47/181 479/41/175 195/42/176 196/48/182
f 466/365/432 465/364/431 184/36/170 185/35/169
f 467/367/434 466/365/432 185/35/169 479/41/175
f 468/371/436 467/367/434 479/41/175 186/47/181
f 576/35/576 585/38/577 584/37/578 575/36/579
f 776/41/582 586/42/583 585/38/577 576/35/576
f 577/47/588 587/48/589 586/42/583 776/41/582
f 763/365/819 576/35/576 575/36/579 762/364/820
f 764/367/822 776/41/582 576/35/576 763/365/819
f 765/371/824 577/47/588 776/41/582 764/367/822
